<?xml version="1.0" encoding="UTF-8" standalone="no"?>
<!-- Created with Inkscape (http://www.inkscape.org/) -->

<svg
   xmlns:dc="http://purl.org/dc/elements/1.1/"
   xmlns:cc="http://creativecommons.org/ns#"
   xmlns:rdf="http://www.w3.org/1999/02/22-rdf-syntax-ns#"
   xmlns:svg="http://www.w3.org/2000/svg"
   xmlns="http://www.w3.org/2000/svg"
   xmlns:sodipodi="http://sodipodi.sourceforge.net/DTD/sodipodi-0.dtd"
   xmlns:inkscape="http://www.inkscape.org/namespaces/inkscape"
   width="450.00003"
   height="180.28828"
   id="svg2"
   version="1.1"
   inkscape:version="0.48.5 r10040"
   sodipodi:docname="butterfat.svg">
  <defs
     id="defs4" />
  <sodipodi:namedview
     id="base"
     pagecolor="#ffffff"
     bordercolor="#666666"
     borderopacity="1.0"
     inkscape:pageopacity="0.0"
     inkscape:pageshadow="2"
     inkscape:zoom="0.98994949"
     inkscape:cx="447.435"
     inkscape:cy="237.71498"
     inkscape:document-units="px"
     inkscape:current-layer="text3001"
     showgrid="false"
     inkscape:window-width="2560"
     inkscape:window-height="1374"
     inkscape:window-x="0"
     inkscape:window-y="27"
     inkscape:window-maximized="1"
     units="pt"
     inkscape:snap-page="true"
     inkscape:snap-bbox="true"
     inkscape:snap-nodes="false"
     fit-margin-top="0"
     fit-margin-left="0"
     fit-margin-right="0"
     fit-margin-bottom="0" />
  <metadata
     id="metadata7">
    <rdf:RDF>
      <cc:Work
         rdf:about="">
        <dc:format>image/svg+xml</dc:format>
        <dc:type
           rdf:resource="http://purl.org/dc/dcmitype/StillImage" />
        <dc:title></dc:title>
      </cc:Work>
    </rdf:RDF>
  </metadata>
  <g
     inkscape:label="Layer 1"
     inkscape:groupmode="layer"
     id="layer1"
     transform="translate(0,-501.658)">
    <g
       style="font-size:50.87823105px;font-style:normal;font-weight:normal;line-height:125%;letter-spacing:0px;word-spacing:0px;fill:#000000;fill-opacity:1;stroke:none;font-family:Sans;-inkscape-font-specification:Sans"
       id="text3001">
      <path
         id="path3786-28"
         style="font-size:50.87823105px;font-style:normal;font-weight:normal;line-height:125%;letter-spacing:0px;word-spacing:0px;fill:#000000;fill-opacity:1;stroke:none;font-family:Sans;-inkscape-font-specification:Sans"
         d="m 61.003022,669.2935 c -1.339892,10e-6 -2.405713,0.49942 -3.197456,1.49823 -0.785665,0.99883 -1.178495,2.36004 -1.178491,4.0836 -4e-6,1.71751 0.392826,3.07565 1.178491,4.07449 0.791743,0.99882 1.857564,1.49823 3.197456,1.49823 1.339877,0 2.399604,-0.49941 3.179184,-1.49823 0.785649,-0.99884 1.178479,-2.35698 1.17849,-4.07449 -1.1e-5,-1.72356 -0.392841,-3.08477 -1.17849,-4.0836 -0.77958,-0.99881 -1.839307,-1.49822 -3.179184,-1.49823 m 0,-1.49825 c 1.912374,2e-5 3.441063,0.64255 4.586066,1.92761 1.144979,1.279 1.717476,2.99649 1.71749,5.15247 -1.4e-5,2.14992 -0.572511,3.86741 -1.71749,5.15248 -1.145003,1.27898 -2.673692,1.91847 -4.586066,1.91847 -1.918479,0 -3.453256,-0.63949 -4.60434,-1.91847 -1.144993,-1.27897 -1.71749,-2.99647 -1.71749,-5.15248 0,-2.15598 0.572497,-3.87347 1.71749,-5.15247 1.151084,-1.28506 2.685861,-1.92759 4.60434,-1.92761 M 34.013925,626.21602 c -1.339892,1e-5 -2.405714,0.49942 -3.197456,1.49823 -0.785665,0.99882 -1.178495,2.36004 -1.178491,4.0836 -4e-6,1.7175 0.392826,3.07566 1.178491,4.07448 0.791742,0.99882 1.857564,1.49823 3.197456,1.49823 1.339877,0 2.399604,-0.49941 3.179183,-1.49823 0.78565,-0.99882 1.17848,-2.35698 1.178491,-4.07448 -1.1e-5,-1.72356 -0.392841,-3.08478 -1.178491,-4.0836 -0.779579,-0.99881 -1.839306,-1.49822 -3.179183,-1.49823 m 0,-1.49826 c 1.912374,2e-5 3.441063,0.64255 4.586065,1.92762 1.14498,1.27899 1.717477,2.99649 1.717491,5.15247 -1.4e-5,2.14991 -0.572511,3.86741 -1.717491,5.15248 -1.145002,1.27898 -2.673691,1.91847 -4.586065,1.91847 -1.918479,0 -3.453256,-0.63949 -4.60434,-1.91847 -1.144993,-1.27898 -1.71749,-2.99647 -1.71749,-5.15248 0,-2.15598 0.572497,-3.87348 1.71749,-5.15247 1.151084,-1.28507 2.685861,-1.9276 4.60434,-1.92762 m 0.06566,-36.52288 c -1.339893,0 -2.405713,0.49942 -3.197456,1.49822 -0.785665,0.99884 -1.178495,2.36005 -1.17849,4.08361 -5e-6,1.71751 0.392825,3.07566 1.17849,4.07448 0.791743,0.99882 1.857563,1.49824 3.197456,1.49824 1.339878,0 2.399605,-0.49942 3.179184,-1.49824 0.78565,-0.99882 1.17848,-2.35697 1.17849,-4.07448 -10e-6,-1.72356 -0.39284,-3.08477 -1.17849,-4.08361 -0.779579,-0.9988 -1.839306,-1.49822 -3.179184,-1.49822 m 0,-1.49825 c 1.912375,2e-5 3.441063,0.64255 4.586066,1.92762 1.144979,1.27899 1.717476,2.99647 1.71749,5.15246 -1.4e-5,2.14991 -0.572511,3.86741 -1.71749,5.15248 -1.145003,1.27898 -2.673691,1.91848 -4.586066,1.91848 -1.918479,0 -3.453256,-0.6395 -4.60434,-1.91848 -1.144993,-1.27898 -1.71749,-2.99647 -1.71749,-5.15248 0,-2.15599 0.572497,-3.87347 1.71749,-5.15246 1.151084,-1.28507 2.685861,-1.9276 4.60434,-1.92762 m 27.711434,-83.54039 c -1.339893,10e-6 -2.405712,0.49942 -3.197455,1.49822 -0.785666,0.99885 -1.178495,2.36005 -1.178491,4.08362 -4e-6,1.71751 0.392825,3.07565 1.178491,4.07447 0.791743,0.99883 1.857562,1.49824 3.197455,1.49824 1.339879,0 2.399606,-0.49941 3.179184,-1.49824 0.785651,-0.99882 1.17848,-2.35696 1.178491,-4.07447 -1.1e-5,-1.72357 -0.39284,-3.08477 -1.178491,-4.08362 -0.779578,-0.9988 -1.839305,-1.49821 -3.179184,-1.49822 m 0,-1.49824 c 1.912375,2e-5 3.441063,0.64255 4.586067,1.92761 1.144979,1.27899 1.717476,2.99648 1.71749,5.15247 -1.4e-5,2.14991 -0.572511,3.8674 -1.71749,5.15248 -1.145004,1.27898 -2.673692,1.91847 -4.586067,1.91847 -1.918478,0 -3.453256,-0.63949 -4.604339,-1.91847 -1.144993,-1.27898 -1.71749,-2.99648 -1.71749,-5.15248 0,-2.15599 0.572497,-3.87348 1.71749,-5.15247 1.151083,-1.28506 2.685861,-1.92759 4.604339,-1.92761 m 0.131333,49.69774 c -1.339893,10e-6 -2.405712,0.49943 -3.197456,1.49824 -0.785665,0.99883 -1.178494,2.36003 -1.17849,4.08361 -4e-6,1.71749 0.392825,3.07565 1.17849,4.07448 0.791744,0.99882 1.857563,1.49822 3.197456,1.49822 1.339878,0 2.399605,-0.4994 3.179184,-1.49822 0.785651,-0.99883 1.17848,-2.35699 1.17849,-4.07448 -1e-5,-1.72358 -0.392839,-3.08478 -1.17849,-4.08361 -0.779579,-0.99881 -1.839306,-1.49823 -3.179184,-1.49824 m 0,-1.49824 c 1.912375,1e-5 3.441062,0.64255 4.586067,1.92761 1.144978,1.27899 1.717476,2.99649 1.71749,5.15248 -1.4e-5,2.14991 -0.572512,3.86739 -1.71749,5.15246 -1.145005,1.27899 -2.673692,1.91848 -4.586067,1.91848 -1.918478,0 -3.453256,-0.63949 -4.604339,-1.91848 -1.144994,-1.27898 -1.71749,-2.99646 -1.71749,-5.15246 0,-2.15599 0.572496,-3.87349 1.71749,-5.15248 1.151083,-1.28506 2.685861,-1.9276 4.604339,-1.92761 m -24.034081,-1.98211 c -1.339893,10e-6 -2.405713,0.49943 -3.197457,1.49825 -0.785664,0.99883 -1.178494,2.36003 -1.17849,4.0836 -4e-6,1.7175 0.392826,3.07565 1.17849,4.07448 0.791744,0.99883 1.857564,1.49823 3.197457,1.49823 1.339878,0 2.399605,-0.4994 3.179184,-1.49823 0.78565,-0.99883 1.178478,-2.35698 1.17849,-4.07448 -1.2e-5,-1.72357 -0.39284,-3.08477 -1.17849,-4.0836 -0.779579,-0.99882 -1.839306,-1.49824 -3.179184,-1.49825 m 0,-1.49823 c 1.912374,10e-6 3.441062,0.64255 4.586066,1.92761 1.14498,1.279 1.717476,2.99648 1.71749,5.15247 -1.4e-5,2.14992 -0.57251,3.8674 -1.71749,5.15247 -1.145004,1.27898 -2.673692,1.91847 -4.586066,1.91847 -1.918478,0 -3.453256,-0.63949 -4.604339,-1.91847 -1.144993,-1.27898 -1.71749,-2.99647 -1.71749,-5.15247 0,-2.15599 0.572497,-3.87347 1.71749,-5.15247 1.151083,-1.28506 2.685861,-1.9276 4.604339,-1.92761 m 19.812358,110.48776 -0.0099,-8.36597 -7.896384,-5.24108 c -4.343014,-2.88259 -7.896385,-5.37454 -7.896385,-5.53766 0,-0.16313 0.20685,-0.57525 0.459668,-0.91582 0.412216,-0.55531 1.370746,-0.0128 9.2853,5.25569 4.854097,3.23123 9.04168,5.87772 9.305739,5.88111 0.264058,0.003 5.511205,-2.88975 11.660325,-6.42919 6.149118,-3.53946 11.355762,-6.43536 11.355762,-6.43536 l 11.323091,6.47959 11.515285,6.4856 11.69543,-6.52445 11.32769,-6.53049 10.73638,6.16789 11.47186,6.63358 12.24622,-6.1676 11.51074,-6.63329 9.81787,5.62952 11.46825,6.64437 1.65038,1.01487 7.54298,-3.8894 12.8849,-6.66424 5.34193,-2.77484 8.85858,6.45341 8.85856,6.4534 11.95738,0.27175 11.95738,0.27174 10.06002,-7.00048 10.43171,-6.70571 11.55419,8.27946 11.18248,7.98469 12.16867,-8.18693 13.03384,-8.84974 0.86516,-0.66277 11.91418,9.0002 12.1327,9.00019 11.23041,-8.67532 11.45652,-8.5039 11.74231,8.12371 11.53864,7.9523 11.38602,-7.71448 11.45107,-7.81436 21.72245,14.62496 -1.07153,1.45549 -10.3268,-6.90127 -10.18089,-6.90126 -11.14085,7.77003 -11.57548,7.94227 -11.76751,-7.80939 -11.7592,-8.14645 -11.2159,8.35122 -11.22376,8.69787 -12.39673,-8.86511 -11.96258,-9.04694 -12.79307,8.70101 -13.19079,8.71094 -22.80414,-15.98108 -10.01868,6.44251 -9.61636,6.74925 -6.16166,-0.1392 -12.85031,-0.35545 -6.68865,-0.21625 -8.38847,-6.17485 -8.38847,-6.17485 -10.48042,5.33923 -12.89456,6.62218 -2.4141,1.28293 -10.64048,-6.14999 -11.42574,-6.64068 -12.30222,6.14432 -12.45318,6.08382 -11.48739,-6.62299 -10.55117,-6.07176 -11.43535,6.58804 -11.54993,6.58803 -11.293476,-6.48736 -11.54661,-6.49307 c 0,0 -4.794341,2.52435 -10.204636,5.61663 l -9.836903,5.62232 0,8.22543 0,8.22543 -0.919336,0 -0.919337,0 0,-7.47726 0,-8.13395 -1.103204,0.65668 -1.103204,-0.57459 0,8.05186 0,7.47726 -1.103204,0 -1.103203,0 -0.0099,-8.36595 z m 190.956131,-11.0313 -5.60796,-0.11184 0,-0.90977 0,-0.90974 22.44343,0.39219 -0.0117,1.81421 -5.60795,-0.0816 z M 13.398522,630.19229 2.3046666,627.58094 1.1214068,610.62175 0,593.70649 2.8116256,576.40035 5.6232511,559.0942 l 11.0584799,-2.31825 11.426173,-2.36766 0.484093,0.96186 -0.183868,1.01392 -20.9066732,4.48475 -2.5457902,14.84133 -2.5987808,15.88186 -0.2075861,1.19513 11.2325653,0 11.232561,0 0,0.91935 0,0.91933 -11.215903,0 -11.2159066,0 0,1.01128 2.0462963,30.20774 20.4783513,4.81325 0.275801,0.90336 -0.275801,1.04795 -11.307821,-2.41711 z M 79.958489,594.3583 c 0,0 -18.065119,-10.53102 -18.570599,-10.48884 -0.303382,0.0253 -4.440397,1.62668 -9.193368,3.55856 -7.907996,3.21428 -8.681213,3.45948 -9.106389,2.88783 -0.255542,-0.3436 -0.41601,-0.77055 -0.356588,-0.94881 0.05942,-0.17825 7.861644,-3.46793 7.861644,-3.46793 l 8.134821,-3.29555 c 0,0 0.08571,-7.74674 0.08571,-10.64891 l 0,-5.27667 0.919337,0 0.919337,0 0,7.47729 0,7.77276 1.103203,-0.29549 1.103204,0.60742 0,-8.08469 0,-7.47729 0.919337,0 0.919337,0 0,8.18918 0,8.18918 5.056351,2.90938 c 2.780994,1.60015 9.885233,5.78473 9.885233,5.78473 l 5.04169,2.87537 5.28382,-2.98754 11.409921,-6.62355 6.33889,-3.63599 8.92209,5.20087 11.41079,6.65909 2.48872,1.45819 2.84344,-1.63888 11.51755,-6.65662 8.67411,-5.01775 8.97715,5.19999 11.46586,6.65663 2.48871,1.45663 2.84345,-1.63888 11.52055,-6.65834 8.67711,-5.01949 8.42255,4.89758 11.45575,6.67208 3.03319,1.77453 1.56349,-1.04558 10.33694,-6.65739 8.77344,-5.6118 1.15539,0.59643 9.06168,5.02493 9.96286,5.53043 2.05655,1.10191 3.45947,-2.05925 11.43128,-6.6474 7.97183,-4.58814 9.86331,5.7159 11.5523,6.6473 1.68899,0.93139 3.45929,-2.05915 11.43111,-6.6473 7.97183,-4.58814 9.86331,5.70968 11.48884,6.64352 1.62555,0.93384 1.31633,-0.75115 11.24515,-6.54683 10.29658,-5.80759 23.78184,13.63128 -1.01528,1.49589 -9.59883,-5.38198 -11.33027,-6.53209 -1.83988,-1.01814 -7.16962,4.15791 -10.67619,6.25305 -4.95188,2.7623 -23.09651,-13.18873 -19.35015,11.27166 -3.45719,2.06853 -5.69027,-3.24656 -17.04183,-9.78198 -17.78112,9.798 -3.50813,2.07038 -2.03721,1.15282 -3.47881,-1.95216 -18.47762,-10.14864 -13.1329,8.21038 -7.64303,4.73236 -5.63905,-3.0717 -11.31554,-6.58147 -6.05676,-3.51352 -7.56429,4.38745 -11.28113,6.54733 -4.1625,2.15988 -5.6455,-3.03381 -11.25665,-6.54733 -6.05676,-3.51352 -7.56428,4.38745 -11.28115,6.54733 -4.16537,2.15988 -4.92491,-2.63258 -17.93372,-10.23813 -17.778958,10.08 -5.332152,2.76185 -4.617857,-2.44507 z m -34.907716,-48.24929 6.776016,-5.71182 6.435355,-5.38561 0.508622,-0.40863 0.04297,-16.0982 0.919336,0 0.919337,0 0,14.97556 1.352325,-1.20366 0.854083,0.62382 0,-14.39572 0.912023,0 0.912021,0 0.09925,7.78993 0.09925,7.78992 9.744968,5.63023 c 5.359731,3.09662 10.061076,5.6324 10.061076,5.6324 l 11.477314,-6.4332 11.503151,-6.43537 11.4648,6.43537 11.44736,6.43535 11.55417,-6.48475 12.10269,-6.08696 11.41994,6.48475 10.88073,6.08696 11.56348,-6.48475 12.07385,-6.10008 11.42153,6.50761 11.01771,5.95398 8.97298,-6.45823 8.8711,-6.28925 11.54885,6.06675 11.21035,6.06674 11.48971,-6.619 11.48971,-6.61899 11.50098,6.61481 11.50095,6.61482 11.48514,-6.61636 11.48512,-6.61636 11.5861,6.71335 11.96363,6.77093 -1.03898,1.67175 -11.25889,-6.26884 -11.23536,-6.53644 -11.01258,6.36192 -11.93741,6.95312 -11.64822,-6.75265 -11.38004,-6.55583 -11.00686,6.35866 -11.60657,6.55682 -11.83012,-5.89625 -11.23043,-6.09443 -9.00141,6.63166 -9.00141,6.63166 -11.46611,-6.61316 -11.08259,-6.2585 -12.7105,6.67237 -10.73003,6.18637 -11.45492,-6.6067 -11.13705,-6.3177 -12.64963,6.74081 -10.73484,6.18914 -11.44489,-6.6355 -11.44489,-6.63551 -11.284122,6.51844 -11.68639,6.52012 c 0,0 -5.351142,-2.86119 -11.399773,-6.36026 -6.048637,-3.49908 -11.244664,-6.50064 -11.244664,-6.50064 l -15.413822,12.61817 c -0.630455,0.40974 -1.780229,-0.64745 -1.595484,-1.32494 z"
         inkscape:connector-curvature="0"
         sodipodi:nodetypes="ccscsccccccccscsccccscsccccccccscsccccscsccccccccscsccccscsccccccccscsccccscsccccccccscsccccscsccccccccscsccccsssscscccccccccccccccccccccccccccccccccccccccccccccccccccccccccccccccccccccsccccccccccccccccccccccccccccccccccccccccccccccccccccsscccscccccccccccccscccccccccccccccccccccccccccccccccccccccccccccccccccccccccccccccccccccccccccccccccccccccccccccccsccccccccccccccccccccccccccccccccccccccccccccccccccsccc" />
    </g>
  </g>
</svg>
