<?xml version="1.0" encoding="UTF-8" standalone="no"?>
<!-- Created with Inkscape (http://www.inkscape.org/) -->

<svg
   xmlns:dc="http://purl.org/dc/elements/1.1/"
   xmlns:cc="http://creativecommons.org/ns#"
   xmlns:rdf="http://www.w3.org/1999/02/22-rdf-syntax-ns#"
   xmlns:svg="http://www.w3.org/2000/svg"
   xmlns="http://www.w3.org/2000/svg"
   xmlns:sodipodi="http://sodipodi.sourceforge.net/DTD/sodipodi-0.dtd"
   xmlns:inkscape="http://www.inkscape.org/namespaces/inkscape"
   id="svg2"
   version="1.1"
   inkscape:version="0.48.5 r10040"
   width="123.79485"
   height="139.334"
   xml:space="preserve"
   sodipodi:docname="PressureSensor15psi-Honeywell.pdf"><metadata
     id="metadata8"><rdf:RDF><cc:Work
         rdf:about=""><dc:format>image/svg+xml</dc:format><dc:type
           rdf:resource="http://purl.org/dc/dcmitype/StillImage" /><dc:title></dc:title></cc:Work></rdf:RDF></metadata><defs
     id="defs6" /><sodipodi:namedview
     pagecolor="#ffffff"
     bordercolor="#666666"
     borderopacity="1"
     objecttolerance="10"
     gridtolerance="10"
     guidetolerance="10"
     inkscape:pageopacity="0"
     inkscape:pageshadow="2"
     inkscape:window-width="2560"
     inkscape:window-height="1374"
     id="namedview4"
     showgrid="false"
     fit-margin-top="0"
     fit-margin-left="0"
     fit-margin-right="0"
     fit-margin-bottom="0"
     inkscape:zoom="3.8141414"
     inkscape:cx="146.50805"
     inkscape:cy="68.047883"
     inkscape:window-x="0"
     inkscape:window-y="27"
     inkscape:window-maximized="1"
     inkscape:current-layer="g10" /><g
     id="g10"
     inkscape:groupmode="layer"
     inkscape:label="PressureSensor15psi-Honeywell"
     transform="matrix(1.25,0,0,-1.25,-400.22211,634.71697)"><path
       d="m 378.21575,426.02064 2.63941,-1.37968 m -2.63941,6.89839 5.15885,-2.33945 m -5.15885,8.03812 5.15885,-2.51941 m -5.33881,8.69797 5.51877,-3.17926 m 2.81937,13.55684 -3.29927,0.95978 m 12.53721,8.9979 -6.41857,2.03952 m -26.81403,12.11718 5.45879,-1.85957 m 23.27481,-17.03603 -6.59853,2.33946 m -21.23527,9.17786 -2.33948,2.33945 m -20.09552,31.25271 2.6994,-2.81934 m 37.31169,-49.06856 -2.15952,2.51942 m -31.73293,52.54774 4.55898,-5.9986 m 23.99466,-9.35782 3.29926,-0.89979 m -12.53721,-8.9979 6.2986,-2.03952 m 26.99399,-12.17716 -5.63875,1.91955 m -23.09485,17.03602 6.59853,-2.39944 m 24.47455,-11.51731 -3.29927,2.39944 m -17.75604,18.11578 2.39946,-2.33946 m -27.95377,16.25621 4.37902,-5.9986 m 3.77916,5.9986 4.07909,-5.9986 m -4.25905,-26.03393 -1.07976,2.63939 m -36.59185,-34.97185 0,61.48566 m 80.3821,-31.55264 -4.19907,0 m -46.18971,0 5.33881,0 m 37.67161,-2.33945 1.07976,-2.69937 m -27.11396,12.17716 -1.73961,6.77841 m 18.35591,-20.9951 1.91957,-6.77842 m -23.27481,17.03603 -1.55966,5.9986 m 11.15752,2.33945 -1.91957,7.55824 m 8.99799,-30.59286 1.85959,-7.55824 m -30.77315,-11.21738 0,30.29293 m 19.91557,-19.07555 3.29926,0.95978 m 2.03955,49.36848 -11.75738,0 m -43.49032,0 15.23661,0 m 53.08817,-34.37198 1.67963,-5.9986 m -14.87669,-11.39734 0,-7.25831 m 0,-20.45523 0,-11.51731 m 0.11998,90.99877 0,-10.73749 m 5.51877,-1.43967 -3.11931,-0.89979 m 22.73494,-47.98881 0,29.81305 m -28.55364,-11.51731 -1.91957,-7.55824 m 8.99799,30.59286 1.85959,7.55824 m -18.53587,-22.19482 -1.55966,-5.9986 m 6.2986,2.03952 -1.73961,-6.77842 m 18.35591,20.99511 1.91957,6.77841 m -27.8338,-16.2562 -1.07976,-2.69937 m 31.73293,8.21808 1.67963,5.9986 m 2.99933,-6.77842 1.07976,2.63939 m -56.14749,23.51451 3.41924,5.87863 m 20.57541,-5.9986 1.73962,2.81934 m -17.75605,-2.81934 3.77916,5.9986 m 4.37902,-5.9986 3.77916,5.9986 m 17.39613,-13.91675 -2.03955,-2.33946 m -15.53654,-15.77632 -2.33948,-2.39944 m 19.91557,-20.63519 2.39946,2.51942 m -2.51944,-9.47779 -2.69939,-2.03953 m 20.57541,27.29364 3.29927,2.33945 m -18.53587,-43.66981 -5.15885,-3.17926 m 5.15885,8.69797 -5.15885,-3.17926 m 5.33881,8.69797 -5.33881,-2.9993 m 12.89712,49.54844 -6.59853,-2.39944 m -13.67695,-25.37408 6.59853,2.33946 m -15.05665,6.47849 5.45879,1.91955 m 31.73293,8.1581 -5.63875,-1.85957"
       style="fill:none;stroke:#000000;stroke-width:0.94378483;stroke-linecap:round;stroke-linejoin:round;stroke-miterlimit:10;stroke-opacity:1;stroke-dasharray:none"
       id="path380"
       inkscape:connector-curvature="0" /><path
       d="m 395.61187,482.04757 -6.41857,-2.03952 m -22.9149,-16.25621 6.2986,2.03952"
       style="fill:none;stroke:#000000;stroke-width:0.94378483;stroke-linecap:round;stroke-linejoin:round;stroke-miterlimit:10;stroke-opacity:1;stroke-dasharray:none"
       id="path382"
       inkscape:connector-curvature="0" /><text
       transform="scale(1.0000052,-0.99999477)"
       id="text384"
       x="323.86615"
       y="-432.5014"
       style="font-size:11.99726486px"><tspan
         style="font-size:6.62498951px;font-variant:normal;font-weight:normal;writing-mode:lr-tb;fill:#000000;fill-opacity:1;fill-rule:nonzero;stroke:none;font-family:Arial;-inkscape-font-specification:Arial"
         x="323.86615"
         y="-432.5014"
         id="tspan386">1</tspan></text>
<text
       transform="scale(1.0000052,-0.99999477)"
       id="text388"
       x="320.14691"
       y="-424.64279"
       style="font-size:11.99726486px"><tspan
         style="font-size:6.62498951px;font-variant:normal;font-weight:normal;writing-mode:lr-tb;fill:#000000;fill-opacity:1;fill-rule:nonzero;stroke:none;font-family:Arial;-inkscape-font-specification:Arial"
         x="320.14691 324.53928 327.82526"
         y="-424.64279"
         sodipodi:role="line"
         id="tspan390">Vcc</tspan></text>
<text
       transform="scale(1.0000052,-0.99999477)"
       id="text392"
       x="354.21924"
       y="-432.32114"
       style="font-size:11.99726486px"><tspan
         style="font-size:6.62498951px;font-variant:normal;font-weight:normal;writing-mode:lr-tb;fill:#000000;fill-opacity:1;fill-rule:nonzero;stroke:none;font-family:Arial;-inkscape-font-specification:Arial"
         x="354.21924"
         y="-432.32114"
         id="tspan394">2</tspan></text>
<text
       transform="scale(1.0000052,-0.99999477)"
       id="text396"
       x="342.5817"
       y="-424.46262"
       style="font-size:11.99726486px"><tspan
         style="font-size:6.62498951px;font-variant:normal;font-weight:normal;writing-mode:lr-tb;fill:#000000;fill-opacity:1;fill-rule:nonzero;stroke:none;font-family:Arial;-inkscape-font-specification:Arial"
         x="342.5817 347.63522 352.31778 356.26495"
         y="-424.46262"
         sodipodi:role="line"
         id="tspan398">OUTP</tspan></text>
<text
       transform="scale(1.0000052,-0.99999477)"
       id="text400"
       x="360.64417"
       y="-424.46262"
       style="font-size:11.99726486px"><tspan
         style="font-size:6.62498951px;font-variant:normal;font-weight:normal;writing-mode:lr-tb;fill:#000000;fill-opacity:1;fill-rule:nonzero;stroke:none;font-family:Arial;-inkscape-font-specification:Arial"
         x="360.64417 365.32672"
         y="-424.46262"
         sodipodi:role="line"
         id="tspan402">UT</tspan></text>
<text
       transform="scale(1.0000052,-0.99999477)"
       id="text404"
       x="353.73956"
       y="-416.60471"
       style="font-size:11.99726486px"><tspan
         style="font-size:6.62498951px;font-variant:normal;font-weight:normal;writing-mode:lr-tb;fill:#000000;fill-opacity:1;fill-rule:nonzero;stroke:none;font-family:Arial;-inkscape-font-specification:Arial"
         x="353.73956"
         y="-416.60471"
         id="tspan406">A</tspan></text>
<text
       transform="scale(1.0000052,-0.99999477)"
       id="text408"
       x="379.17426"
       y="-404.24713"
       style="font-size:11.99726486px"><tspan
         style="font-size:6.62498951px;font-variant:normal;font-weight:normal;writing-mode:lr-tb;fill:#000000;fill-opacity:1;fill-rule:nonzero;stroke:none;font-family:Arial;-inkscape-font-specification:Arial"
         x="379.17426"
         y="-404.24713"
         id="tspan410">3</tspan></text>
<text
       transform="scale(1.0000052,-0.99999477)"
       id="text412"
       x="373.83517"
       y="-396.38931"
       style="font-size:11.99726486px"><tspan
         style="font-size:6.62498951px;font-variant:normal;font-weight:normal;writing-mode:lr-tb;fill:#000000;fill-opacity:1;fill-rule:nonzero;stroke:none;font-family:Arial;-inkscape-font-specification:Arial"
         x="373.83517 378.81516"
         y="-396.38931"
         sodipodi:role="line"
         id="tspan414">GN</tspan></text>
<text
       transform="scale(1.0000052,-0.99999477)"
       id="text416"
       x="383.55264"
       y="-396.38931"
       style="font-size:11.99726486px"><tspan
         style="font-size:6.62498951px;font-variant:normal;font-weight:normal;writing-mode:lr-tb;fill:#000000;fill-opacity:1;fill-rule:nonzero;stroke:none;font-family:Arial;-inkscape-font-specification:Arial"
         x="383.55264"
         y="-396.38931"
         id="tspan418">D</tspan></text>
<text
       transform="scale(1.0000052,-0.99999477)"
       id="text420"
       x="404.12857"
       y="-432.32123"
       style="font-size:11.99726486px"><tspan
         style="font-size:6.62498951px;font-variant:normal;font-weight:normal;writing-mode:lr-tb;fill:#000000;fill-opacity:1;fill-rule:nonzero;stroke:none;font-family:Arial;-inkscape-font-specification:Arial"
         x="404.12857"
         y="-432.32123"
         id="tspan422">4</tspan></text>
<text
       transform="scale(1.0000052,-0.99999477)"
       id="text424"
       x="392.49112"
       y="-424.46262"
       style="font-size:11.99726486px"><tspan
         style="font-size:6.62498951px;font-variant:normal;font-weight:normal;writing-mode:lr-tb;fill:#000000;fill-opacity:1;fill-rule:nonzero;stroke:none;font-family:Arial;-inkscape-font-specification:Arial"
         x="392.49112 397.54663 402.23117 406.18033"
         y="-424.46262"
         sodipodi:role="line"
         id="tspan426">OUTP</tspan></text>
<text
       transform="scale(1.0000052,-0.99999477)"
       id="text428"
       x="410.5596"
       y="-424.46262"
       style="font-size:11.99726486px"><tspan
         style="font-size:6.62498951px;font-variant:normal;font-weight:normal;writing-mode:lr-tb;fill:#000000;fill-opacity:1;fill-rule:nonzero;stroke:none;font-family:Arial;-inkscape-font-specification:Arial"
         x="410.5596"
         y="-424.46262"
         id="tspan430">U</tspan></text>
<text
       transform="scale(1.0000052,-0.99999477)"
       id="text432"
       x="415.29721"
       y="-424.46262"
       style="font-size:11.99726486px"><tspan
         style="font-size:6.62498951px;font-variant:normal;font-weight:normal;writing-mode:lr-tb;fill:#000000;fill-opacity:1;fill-rule:nonzero;stroke:none;font-family:Arial;-inkscape-font-specification:Arial"
         x="415.29721"
         y="-424.46262"
         id="tspan434">T</tspan></text>
<text
       transform="scale(1.0000052,-0.99999477)"
       id="text436"
       x="403.64896"
       y="-416.6048"
       style="font-size:11.99726486px"><tspan
         style="font-size:6.62498951px;font-variant:normal;font-weight:normal;writing-mode:lr-tb;fill:#000000;fill-opacity:1;fill-rule:nonzero;stroke:none;font-family:Arial;-inkscape-font-specification:Arial"
         x="403.64896"
         y="-416.6048"
         id="tspan438">B</tspan></text>
</g></svg>