<?xml version="1.0" encoding="UTF-8" standalone="no"?>
<!-- Created with Inkscape (http://www.inkscape.org/) -->

<svg
   xmlns:dc="http://purl.org/dc/elements/1.1/"
   xmlns:cc="http://creativecommons.org/ns#"
   xmlns:rdf="http://www.w3.org/1999/02/22-rdf-syntax-ns#"
   xmlns:svg="http://www.w3.org/2000/svg"
   xmlns="http://www.w3.org/2000/svg"
   xmlns:sodipodi="http://sodipodi.sourceforge.net/DTD/sodipodi-0.dtd"
   xmlns:inkscape="http://www.inkscape.org/namespaces/inkscape"
   id="svg2"
   version="1.1"
   inkscape:version="0.91 r13725"
   xml:space="preserve"
   width="409.108"
   height="266.36746"
   viewBox="0 0 409.108 266.36746"
   sodipodi:docname="Kent-PSM-HeadLoss.svg"><metadata
     id="metadata8"><rdf:RDF><cc:Work
         rdf:about=""><dc:format>image/svg+xml</dc:format><dc:type
           rdf:resource="http://purl.org/dc/dcmitype/StillImage" /><dc:title></dc:title></cc:Work></rdf:RDF></metadata><defs
     id="defs6" /><sodipodi:namedview
     pagecolor="#ffffff"
     bordercolor="#666666"
     borderopacity="1"
     objecttolerance="10"
     gridtolerance="10"
     guidetolerance="10"
     inkscape:pageopacity="0"
     inkscape:pageshadow="2"
     inkscape:window-width="2556"
     inkscape:window-height="1401"
     id="namedview4"
     showgrid="false"
     fit-margin-top="0"
     fit-margin-left="0"
     fit-margin-right="0"
     fit-margin-bottom="0"
     inkscape:zoom="3.5876484"
     inkscape:cx="224.3562"
     inkscape:cy="137.01371"
     inkscape:window-x="0"
     inkscape:window-y="18"
     inkscape:window-maximized="0"
     inkscape:current-layer="g10" /><g
     id="g10"
     inkscape:groupmode="layer"
     inkscape:label="1a Elster Kent V100-PSM-Volumetric Brochure"
     transform="matrix(1.25,0,0,-1.25,-199.11602,736.321)"><path
       d="m 289.511,578.798 0,-189.554 m 6.312,189.554 0,-189.554 m 5.484,189.554 0,-189.554 m 4.966,189.554 0,-189.554 m 4.346,189.554 0,-189.554 m 9.312,189.554 0,-189.554 m 7.554,189.554 0,-189.554 m 6.208,189.554 0,-189.554 m 5.691,189.554 0,-189.554 m 9.105,189.554 0,-189.554 m 7.553,189.554 0,-189.554 m 6.415,189.554 0,-189.554 m 5.484,189.554 0,-189.554 m 4.863,189.554 0,-189.554 m 4.45,189.554 0,-189.554 m 7.449,189.554 0,-189.554 m 6.519,189.554 0,-189.554 m 5.484,189.554 0,-189.554 m 4.863,189.554 0,-189.554 m 4.449,189.554 0,-189.554 m 9.002,189.554 0,-189.554 m 7.657,189.554 0,-189.554 m 6.415,189.554 0,-189.554 m 5.587,189.554 0,-189.554 m 9.106,189.554 0,-189.554 m 7.656,189.554 0,-189.554 m 6.312,189.554 0,-189.554 m 5.381,189.554 0,-189.554 m 4.966,189.554 0,-189.554 m -186.039,185.312 191.232,0 m -191.232,-4.76 191.232,0 m -191.232,-5.484 191.232,0 m -191.232,-6.311 191.232,0 m -191.232,-7.657 191.232,0 m -191.232,-9.209 191.232,0 m -191.232,-5.484 191.232,0 m -191.232,-6.311 191.232,0 m -191.232,-7.657 191.232,0 m -191.232,-9.105 191.232,0 m -191.232,-4.346 191.232,0 m -191.232,-4.863 191.232,0 m -191.232,-5.381 191.232,0 m -191.232,-6.415 191.232,0 m -191.232,-7.657 191.232,0 m -191.232,-4.242 191.232,0 m -191.232,-4.966 191.232,0 m -191.232,-5.484 191.232,0 m -191.232,-6.208 191.232,0 m -191.232,-7.554 191.232,0 m -191.232,-9.105 191.232,0 m -191.232,-5.691 191.232,0 m -191.232,-6.312 191.232,0 m -191.232,-7.45 191.232,0 m -191.232,-9.208 191.232,0 m -191.232,-4.346 191.232,0 m -191.232,-4.967 191.232,0 m -191.232,-5.38 191.232,0 m -191.232,-6.312 191.232,0"
       style="fill:none;stroke:#231f20;stroke-width:0.414;stroke-linecap:butt;stroke-linejoin:miter;stroke-miterlimit:3.86400008;stroke-dasharray:none;stroke-opacity:1"
       id="path580"
       inkscape:connector-curvature="0" /><text
       transform="matrix(1,0,0,-1,278.336,585.565)"
       style="font-variant:normal;font-weight:normal;font-size:4.96700001px;font-family:Helvetica;-inkscape-font-specification:HelveticaNeue-Roman;writing-mode:lr-tb;fill:#231f20;fill-opacity:1;fill-rule:nonzero;stroke:none"
       id="text582"><tspan
         x="0 2.2649519 5.0266042"
         y="0"
         sodipodi:role="line"
         id="tspan584">100</tspan></text>
<text
       transform="matrix(1,0,0,-1,309.481,581.881)"
       style="font-variant:normal;font-weight:normal;font-size:4.13899994px;font-family:Helvetica;-inkscape-font-specification:HelveticaNeue-Roman;writing-mode:lr-tb;fill:#231f20;fill-opacity:1;fill-rule:nonzero;stroke:none"
       id="text586"><tspan
         x="0 16.659475 28.455626 37.871849 45.322048 51.840977 57.221676 62.084999 95.403954 111.95995 123.65263 133.17232 140.726 147.14145 152.62563 157.38547"
         y="0"
         sodipodi:role="line"
         id="tspan588">2345678923456789</tspan></text>
<text
       transform="matrix(1,0,0,-1,371.77,585.565)"
       style="font-variant:normal;font-weight:normal;font-size:4.96700001px;font-family:Helvetica;-inkscape-font-specification:HelveticaNeue-Roman;writing-mode:lr-tb;fill:#231f20;fill-opacity:1;fill-rule:nonzero;stroke:none"
       id="text590"><tspan
         x="0 2.2649519 5.0266042 7.7882562 93.548477 95.813431 98.575081 101.33673 104.09839"
         y="0"
         sodipodi:role="line"
         id="tspan592">100010000</tspan><tspan
         x="107.20475 109.4697 112.23135"
         y="8.0713749"
         sodipodi:role="line"
         id="tspan594">100</tspan><tspan
         x="107.20475 109.4697"
         y="102.23775"
         sodipodi:role="line"
         id="tspan596">10</tspan></text>
<text
       transform="matrix(1,0,0,-1,476.481,573.604)"
       style="font-variant:normal;font-weight:normal;font-size:4.13899994px;font-family:Helvetica;-inkscape-font-specification:HelveticaNeue-Roman;writing-mode:lr-tb;fill:#231f20;fill-opacity:1;fill-rule:nonzero;stroke:none"
       id="text598"><tspan
         x="0 2.3012841"
         y="0"
         sodipodi:role="line"
         id="tspan600">90</tspan><tspan
         x="0 2.3012841"
         y="5.0702748"
         sodipodi:role="line"
         id="tspan602">80</tspan><tspan
         x="0 2.3012841"
         y="10.3475"
         sodipodi:role="line"
         id="tspan604">70</tspan><tspan
         x="0 2.3012841"
         y="17.073376"
         sodipodi:role="line"
         id="tspan606">60</tspan><tspan
         x="0 2.3012841"
         y="24.109674"
         sodipodi:role="line"
         id="tspan608">50</tspan><tspan
         x="0 2.3012841"
         y="33.629375"
         sodipodi:role="line"
         id="tspan610">40</tspan><tspan
         x="0 2.3012841"
         y="46.046375"
         sodipodi:role="line"
         id="tspan612">30</tspan><tspan
         x="0 2.3012841"
         y="62.188477"
         sodipodi:role="line"
         id="tspan614">20</tspan><tspan
         x="0"
         y="95.507011"
         id="tspan616">9</tspan><tspan
         x="0"
         y="100.05991"
         id="tspan618">8</tspan><tspan
         x="0"
         y="105.64756"
         id="tspan620">7</tspan><tspan
         x="0"
         y="111.85606"
         id="tspan622">6</tspan><tspan
         x="0"
         y="119.20279"
         id="tspan624">5</tspan><tspan
         x="0"
         y="128.20511"
         id="tspan626">4</tspan><tspan
         x="0"
         y="140.62212"
         id="tspan628">3</tspan><tspan
         x="0"
         y="157.07465"
         id="tspan630">2</tspan></text>
<text
       transform="matrix(1,0,0,-1,478.965,388.041)"
       style="font-variant:normal;font-weight:normal;font-size:4.96700001px;font-family:Helvetica;-inkscape-font-specification:HelveticaNeue-Roman;writing-mode:lr-tb;fill:#231f20;fill-opacity:1;fill-rule:nonzero;stroke:none"
       id="text632"><tspan
         x="0"
         y="0"
         id="tspan634">1</tspan><tspan
         x="-200.64644 -198.38148 -195.61983 -107.20226 -104.93731 -102.17566 -99.414009 -13.653787 -11.388834 -8.627182 -5.8655305 -3.1038783"
         y="9.0513639"
         sodipodi:role="line"
         id="tspan636">100100010000</tspan></text>
<text
       transform="matrix(1,0,0,-1,309.48,383.768)"
       style="font-variant:normal;font-weight:normal;font-size:4.13899994px;font-family:Helvetica;-inkscape-font-specification:HelveticaNeue-Roman;writing-mode:lr-tb;fill:#231f20;fill-opacity:1;fill-rule:nonzero;stroke:none"
       id="text638"><tspan
         x="0 16.659475 28.455626 37.871849 45.322048 51.840977 57.221676 62.084999 95.403954 111.95995 123.65263 133.17232 140.726 147.14145 152.62563 157.38547"
         y="0"
         sodipodi:role="line"
         id="tspan640">2345678923456789</tspan></text>
<text
       transform="matrix(0,1,1,0,277.764,466.73)"
       style="font-variant:normal;font-weight:bold;font-size:4.96700001px;font-family:Helvetica;-inkscape-font-specification:HelveticaNeue-Bold;writing-mode:lr-tb;fill:#231f20;fill-opacity:1;fill-rule:nonzero;stroke:none"
       id="text642"><tspan
         x="0 3.680547 6.5316048 9.3826628 12.4175 13.798326 15.079812 18.114649 20.781927 23.449207 24.830032 26.300264 29.151323 32.464314 35.315369"
         y="0"
         sodipodi:role="line"
         id="tspan644">Head loss (kPa)</tspan></text>
<path
       d="m 351.828,561.236 74.622,0 -0.005,-33.263 -74.622,0 0.005,33.263"
       style="fill:#e9e9e9;fill-opacity:1;fill-rule:nonzero;stroke:none"
       id="path646"
       inkscape:connector-curvature="0" /><path
       d="M 313.62,389.241 431.368,578.798"
       style="fill:none;stroke:#00adef;stroke-width:0.82800001;stroke-linecap:butt;stroke-linejoin:miter;stroke-miterlimit:3.86400008;stroke-dasharray:none;stroke-opacity:1"
       id="path648"
       inkscape:connector-curvature="0" /><path
       d="M 322.621,389.241 440.37,578.798"
       style="fill:none;stroke:#ed1c24;stroke-width:0.82800001;stroke-linecap:butt;stroke-linejoin:miter;stroke-miterlimit:3.86400008;stroke-dasharray:none;stroke-opacity:1"
       id="path650"
       inkscape:connector-curvature="0" /><path
       d="M 328.519,389.241 446.268,578.798"
       style="fill:none;stroke:#4dbd38;stroke-width:0.82800001;stroke-linecap:butt;stroke-linejoin:miter;stroke-miterlimit:3.86400008;stroke-dasharray:none;stroke-opacity:1"
       id="path652"
       inkscape:connector-curvature="0" /><path
       d="m 282.061,578.798 191.232,0 0,-189.554 -191.232,0 0,189.554 z"
       style="fill:none;stroke:#231f20;stroke-width:0.41100001;stroke-linecap:butt;stroke-linejoin:miter;stroke-miterlimit:3.86400008;stroke-dasharray:none;stroke-opacity:1"
       id="path654"
       inkscape:connector-curvature="0" /><text
       transform="matrix(1,0,0,-1,356.746,552.109)"
       style="font-variant:normal;font-weight:normal;font-size:4.96700001px;font-family:Helvetica;-inkscape-font-specification:HelveticaNeue-Roman;writing-mode:lr-tb;fill:#231f20;fill-opacity:1;fill-rule:nonzero;stroke:none"
       id="text656"><tspan
         x="0 2.761652 5.523304 8.284956 9.665782 12.884398 16.103014 20.429272 21.810097 24.571749 27.333401 28.714228 32.951077 37.187927 38.568756 39.949581 41.330406 42.711231 44.09206 45.472885 46.85371 48.234535 49.615364 50.996189 52.377014 53.757839 55.138668 56.519493"
         y="0"
         sodipodi:role="line"
         id="tspan658">114 PSM 15 mm ..............</tspan><tspan
         x="0 2.761652 5.523304 8.284956 9.665782 12.884398 16.103014 20.429272 21.810097 24.571749 27.333401 28.714228 32.951077 37.187927 38.568756 39.949581 41.330406 42.711231 44.09206 45.472885 46.85371 48.234535 49.615364 50.996189 52.377014 53.757839 55.138668 56.519493 57.900318 59.281143 60.661972"
         y="6.6229978"
         sodipodi:role="line"
         id="tspan660">165 PSM 15 mm .................</tspan><tspan
         x="0 2.761652 5.523304 8.284956 9.665782 12.884398 16.103014 20.429272 21.810097 24.571749 27.333401 28.714228 32.951077 37.187927 38.568756 39.949581 41.330406 42.711231 44.09206 45.472885 46.85371 48.234535 49.615364 50.996189 52.377014 53.757839 55.138668 56.519493 57.900318 59.281143 60.661972 62.042797 63.423622"
         y="13.245996"
         sodipodi:role="line"
         id="tspan662">165 PSM 20 mm ...................</tspan><tspan
         x="0 2.761652 5.523304 8.284956 9.665782 12.884398 16.103014 20.429272 21.810097 24.571749 27.333401 28.714228 32.951077 37.187927 38.568756 39.949581 41.330406 42.711231 44.09206 45.472885 46.85371 48.234535 49.615364 50.996189 52.377014 53.757839 55.138668 56.519493 57.900318 59.281143 60.661972 62.042797 63.423622 64.804451"
         y="19.868994"
         sodipodi:role="line"
         id="tspan664">198 PSM 25 mm ....................</tspan></text>
<path
       d="M 334.491,389.241 452.24,578.798"
       style="fill:none;stroke:#f68712;stroke-width:0.82800001;stroke-linecap:butt;stroke-linejoin:miter;stroke-miterlimit:3.86400008;stroke-dasharray:none;stroke-opacity:1"
       id="path666"
       inkscape:connector-curvature="0" /><text
       transform="matrix(1,0,0,-1,392.049,376.991)"
       style="font-variant:normal;font-weight:bold;font-size:4.96700001px;font-family:Helvetica;-inkscape-font-specification:HelveticaNeue-Bold;writing-mode:lr-tb;fill:#231f20;fill-opacity:1;fill-rule:nonzero;stroke:none"
       id="text668"><tspan
         x="0 2.945431 4.2269168 5.9753008 7.818058 10.669116 13.336395 14.717221 17.752058 20.603115 22.535278 23.916105 27.596651 30.631489 33.57692"
         y="0"
         sodipodi:role="line"
         id="tspan670">Litres per Hour</tspan></text>
<g
       id="g4897"
       transform="matrix(0.12495565,0,0,0.12495565,367.08925,372.48281)"><text
         transform="scale(1,-1)"
         id="text638-2"
         style="font-variant:normal;font-weight:normal;font-size:4.13899994px;font-family:Helvetica;-inkscape-font-specification:HelveticaNeue-Roman;writing-mode:lr-tb;fill:#231f20;fill-opacity:1;fill-rule:nonzero;stroke:none"
         x="377.0882"
         y="-126.13101"><tspan
           id="tspan640-4"
           sodipodi:role="line"
           y="-126.13101"
           x="377.0882 393.74768 405.54382 414.96005 422.41025 428.92917 434.30988 439.17319 472.49216 489.04816 500.74084 510.26053 517.81421 524.22961 529.71381 534.47363">2345678923456789</tspan></text>
<path
         inkscape:connector-curvature="0"
         id="path4893"
         d="m 444.82804,131.90324 0,-6.02066"
         style="fill:none;fill-rule:evenodd;stroke:#000000;stroke-width:0.80000001px;stroke-linecap:butt;stroke-linejoin:miter;stroke-opacity:1" /><path
         inkscape:connector-curvature="0"
         id="path4895"
         d="m 540.82407,139.03884 0,-13.37924"
         style="fill:none;fill-rule:evenodd;stroke:#000000;stroke-width:0.80000001px;stroke-linecap:butt;stroke-linejoin:miter;stroke-opacity:1" /></g><text
       xml:space="preserve"
       style="font-style:normal;font-variant:normal;font-weight:bold;font-stretch:normal;font-size:12px;font-family:Helvetica;-inkscape-font-specification:'Helvetica Bold';text-align:center;writing-mode:lr-tb;text-anchor:middle;opacity:0.93599997;fill:#efdfbb;fill-opacity:1;stroke:none;stroke-width:1;stroke-linecap:butt;stroke-linejoin:round;stroke-miterlimit:4;stroke-dasharray:1, 2;stroke-dashoffset:0;stroke-opacity:1"
       x="194.30182"
       y="-544.76422"
       id="text4190"
       transform="scale(1,-1)"><tspan
         sodipodi:role="line"
         id="tspan4192"
         x="194.30182"
         y="-544.76422" /></text>
<text
       xml:space="preserve"
       style="font-style:normal;font-variant:normal;font-weight:bold;font-stretch:normal;font-size:11.19530296px;font-family:Helvetica;-inkscape-font-specification:'Helvetica Bold';text-align:center;writing-mode:lr-tb;text-anchor:middle;opacity:0.93599997;fill:#000000;fill-opacity:1;stroke:none;stroke-width:1;stroke-linecap:butt;stroke-linejoin:round;stroke-miterlimit:4;stroke-dasharray:1, 2;stroke-dashoffset:0;stroke-opacity:1"
       x="215.04393"
       y="-516.16162"
       id="text4194"
       transform="scale(1,-1)"><tspan
         sodipodi:role="line"
         id="tspan4196"
         x="215.04393"
         y="-516.16162">Pressure Drop Graph</tspan></text>
<text
       xml:space="preserve"
       style="font-style:normal;font-variant:normal;font-weight:500;font-stretch:normal;font-size:8px;font-family:Helvetica;-inkscape-font-specification:'Helvetica Medium';text-align:start;writing-mode:lr-tb;text-anchor:start;opacity:0.93599997;fill:#000000;fill-opacity:1;stroke:none;stroke-width:1;stroke-linecap:butt;stroke-linejoin:round;stroke-miterlimit:4;stroke-dasharray:1, 2;stroke-dashoffset:0;stroke-opacity:1"
       x="158.95334"
       y="-504.31094"
       id="text4198"
       transform="scale(1,-1)"><tspan
         sodipodi:role="line"
         id="tspan4200"
         x="158.95334"
         y="-504.31094">Pressure Drop Graphs</tspan><tspan
         sodipodi:role="line"
         x="158.95334"
         y="-494.31094"
         id="tspan4202">(Typical) 15, 20 &amp; 25mm</tspan><tspan
         sodipodi:role="line"
         x="158.95334"
         y="-484.31094"
         id="tspan4204">PSM water meters</tspan></text>
</g></svg>