<?xml version="1.0" encoding="UTF-8" standalone="no"?>
<!-- Created with Inkscape (http://www.inkscape.org/) -->

<svg
   xmlns:dc="http://purl.org/dc/elements/1.1/"
   xmlns:cc="http://creativecommons.org/ns#"
   xmlns:rdf="http://www.w3.org/1999/02/22-rdf-syntax-ns#"
   xmlns:svg="http://www.w3.org/2000/svg"
   xmlns="http://www.w3.org/2000/svg"
   xmlns:sodipodi="http://sodipodi.sourceforge.net/DTD/sodipodi-0.dtd"
   xmlns:inkscape="http://www.inkscape.org/namespaces/inkscape"
   id="svg2"
   version="1.1"
   inkscape:version="0.48.5 r10040"
   width="225"
   height="162.935"
   xml:space="preserve"
   sodipodi:docname="Slip-enhanced electrokinetic energy conservation in nanofluidic channels.pdf"><metadata
     id="metadata8"><rdf:RDF><cc:Work
         rdf:about=""><dc:format>image/svg+xml</dc:format><dc:type
           rdf:resource="http://purl.org/dc/dcmitype/StillImage" /><dc:title></dc:title></cc:Work></rdf:RDF></metadata><defs
     id="defs6"><clipPath
       clipPathUnits="userSpaceOnUse"
       id="clipPath82"><path
         d="m 80.64,771.268 0,-130.348 180,0 0,130.348"
         id="path84"
         inkscape:connector-curvature="0" /></clipPath><clipPath
       clipPathUnits="userSpaceOnUse"
       id="clipPath140"><path
         d="m 80.64,771.268 0,-130.348 180,0 0,130.348"
         id="path142"
         inkscape:connector-curvature="0" /></clipPath><clipPath
       clipPathUnits="userSpaceOnUse"
       id="clipPath150"><path
         d="m 108.157,663.046 145.213,0 0,108.006 -145.213,0 0,-108.006"
         clip-rule="evenodd"
         id="path152"
         inkscape:connector-curvature="0" /></clipPath><clipPath
       clipPathUnits="userSpaceOnUse"
       id="clipPath420"><path
         d="m 80.64,567.572 0,-352.652 180,0 0,352.652"
         id="path422"
         inkscape:connector-curvature="0" /></clipPath><clipPath
       clipPathUnits="userSpaceOnUse"
       id="clipPath674"><path
         d="m 80.64,567.572 0,-352.652 180,0 0,352.652"
         id="path676"
         inkscape:connector-curvature="0" /></clipPath><clipPath
       clipPathUnits="userSpaceOnUse"
       id="clipPath688"><path
         d="m 80.64,567.572 0,-352.652 180,0 0,352.652"
         id="path690"
         inkscape:connector-curvature="0" /></clipPath><clipPath
       clipPathUnits="userSpaceOnUse"
       id="clipPath760"><path
         d="m 129.24,292.971 64.408,0 0,44.694 -64.408,0 0,-44.694"
         clip-rule="evenodd"
         id="path762"
         inkscape:connector-curvature="0" /></clipPath><clipPath
       clipPathUnits="userSpaceOnUse"
       id="clipPath1130"><path
         d="m 337.68,771.698 180,0 0,-349.778 -180,0 0,349.778 z"
         id="path1132"
         inkscape:connector-curvature="0" /></clipPath><clipPath
       clipPathUnits="userSpaceOnUse"
       id="clipPath1168"><path
         d="m 337.68,771.698 180,0 0,-349.778 -180,0 0,349.778 z"
         id="path1170"
         inkscape:connector-curvature="0" /></clipPath><clipPath
       clipPathUnits="userSpaceOnUse"
       id="clipPath1252"><path
         d="m 337.68,771.698 180,0 0,-349.778 -180,0 0,349.778 z"
         id="path1254"
         inkscape:connector-curvature="0" /></clipPath><clipPath
       clipPathUnits="userSpaceOnUse"
       id="clipPath1332"><path
         d="m 337.68,771.698 180,0 0,-349.778 -180,0 0,349.778 z"
         id="path1334"
         inkscape:connector-curvature="0" /></clipPath></defs><sodipodi:namedview
     pagecolor="#ffffff"
     bordercolor="#666666"
     borderopacity="1"
     objecttolerance="10"
     gridtolerance="10"
     guidetolerance="10"
     inkscape:pageopacity="0"
     inkscape:pageshadow="2"
     inkscape:window-width="2560"
     inkscape:window-height="1374"
     id="namedview4"
     showgrid="false"
     fit-margin-top="0"
     fit-margin-left="0"
     fit-margin-right="0"
     fit-margin-bottom="0"
     inkscape:zoom="1.7938242"
     inkscape:cx="310.48398"
     inkscape:cy="4.7796094"
     inkscape:window-x="0"
     inkscape:window-y="27"
     inkscape:window-maximized="1"
     inkscape:current-layer="g10" /><g
     id="g10"
     inkscape:groupmode="layer"
     inkscape:label="Slip-enhanced electrokinetic energy conservation in nanofluidic channels"
     transform="matrix(1.25,0,0,-1.25,-100.8,964.085)"><path
       d="m 206.162,737.124 -18.438,0"
       style="fill:none;stroke:#000000;stroke-width:0.43200001;stroke-linecap:butt;stroke-linejoin:miter;stroke-miterlimit:4;stroke-opacity:1;stroke-dasharray:none"
       id="path28"
       inkscape:connector-curvature="0" /><path
       d="m 185.119,737.124 c 1.226,0.456 2.747,1.231 3.689,2.053 l -0.742,-2.053 0.742,-2.052 c -0.942,0.821 -2.463,1.598 -3.689,2.052"
       style="fill:#000000;fill-opacity:1;fill-rule:nonzero;stroke:none"
       id="path30"
       inkscape:connector-curvature="0" /><path
       d="m 210.911,741.746 -0.214,0 -1.318,-0.537 0.068,-0.176 c 0.137,0.048 0.244,0.078 0.332,0.078 0.078,0 0.147,-0.019 0.195,-0.068 0.049,-0.039 0.088,-0.117 0.108,-0.225 0.029,-0.116 0.039,-0.419 0.039,-0.917 l 0,-4.51 c 0.273,-0.186 0.537,-0.322 0.8,-0.419 0.264,-0.089 0.527,-0.137 0.781,-0.137 0.537,0 1.034,0.205 1.473,0.605 0.518,0.478 0.772,1.102 0.772,1.874 0,0.664 -0.166,1.191 -0.498,1.572 -0.332,0.381 -0.723,0.575 -1.172,0.575 -0.488,0 -0.947,-0.293 -1.366,-0.888 l 0,3.173 z m 0.488,-3.095 c 0.166,0.089 0.332,0.127 0.508,0.127 0.312,0 0.595,-0.146 0.849,-0.448 0.244,-0.303 0.371,-0.733 0.371,-1.29 0,-0.605 -0.127,-1.063 -0.371,-1.376 -0.254,-0.322 -0.516,-0.478 -0.81,-0.478 -0.185,0 -0.361,0.039 -0.527,0.117 -0.175,0.088 -0.341,0.205 -0.507,0.361 l 0,2.607 c 0.195,0.185 0.361,0.312 0.488,0.38"
       style="fill:#000000;fill-opacity:1;fill-rule:nonzero;stroke:none"
       id="path32"
       inkscape:connector-curvature="0" /><path
       d="m 214.461,738.778 5.135,0 0,0.39014 -5.135,0 0,-0.39014 z m 0,-1.552 5.135,0 0,0.391 -5.135,0"
       style="fill:#000000;fill-opacity:1;fill-rule:nonzero;stroke:none"
       id="path34"
       inkscape:connector-curvature="0" /><path
       d="m 221.734,741.433 -1.24,-2.508 c 0.596,-0.02 1.064,-0.108 1.415,-0.244 0.439,-0.186 0.781,-0.449 1.035,-0.791 0.254,-0.342 0.381,-0.703 0.381,-1.094 0,-0.41 -0.147,-0.751 -0.43,-1.034 -0.273,-0.284 -0.606,-0.42 -0.976,-0.42 -0.244,0 -0.488,0.078 -0.722,0.244 -0.146,0.108 -0.253,0.166 -0.312,0.195 -0.068,0.029 -0.137,0.039 -0.225,0.039 -0.107,0 -0.195,-0.039 -0.273,-0.107 -0.069,-0.059 -0.107,-0.137 -0.107,-0.235 0,-0.155 0.088,-0.292 0.263,-0.429 0.176,-0.127 0.459,-0.195 0.85,-0.195 0.38,0 0.751,0.088 1.122,0.264 0.253,0.127 0.488,0.283 0.692,0.488 0.215,0.205 0.391,0.449 0.528,0.742 0.136,0.293 0.205,0.605 0.205,0.946 0,0.586 -0.215,1.094 -0.635,1.524 -0.488,0.498 -1.162,0.82 -2.01,0.937 l 0.429,0.868 1.953,0 0.37,0.811"
       style="fill:#000000;fill-opacity:1;fill-rule:nonzero;stroke:none"
       id="path36"
       inkscape:connector-curvature="0" /><path
       d="m 225.557,735.947 c 0.41,-0.732 0.927,-1.093 1.542,-1.093 0.313,0 0.635,0.117 0.967,0.351 0.332,0.245 0.615,0.625 0.83,1.143 0.215,0.526 0.322,1.161 0.322,1.913 0,1.064 -0.244,1.913 -0.743,2.537 -0.39,0.508 -0.839,0.762 -1.327,0.762 -0.313,0 -0.605,-0.108 -0.888,-0.313 -0.371,-0.253 -0.664,-0.653 -0.889,-1.181 -0.224,-0.536 -0.332,-1.171 -0.332,-1.902 0,-0.87 0.176,-1.602 0.518,-2.217 l 0,0 z m 0.546,3.768 c 0.079,0.567 0.235,0.977 0.459,1.24 0.176,0.195 0.362,0.293 0.576,0.293 0.186,0 0.342,-0.049 0.469,-0.156 0.185,-0.157 0.332,-0.41 0.449,-0.781 0.147,-0.488 0.225,-1.103 0.225,-1.835 0,-0.996 -0.069,-1.767 -0.215,-2.313 -0.098,-0.362 -0.235,-0.625 -0.42,-0.772 -0.186,-0.156 -0.361,-0.234 -0.537,-0.234 -0.352,0 -0.625,0.234 -0.801,0.713 -0.224,0.556 -0.332,1.288 -0.332,2.176 0,0.547 0.04,1.103 0.127,1.669"
       style="fill:#000000;fill-opacity:1;fill-rule:nonzero;stroke:none"
       id="path38"
       inkscape:connector-curvature="0" /><path
       d="m 231.147,739.461 -0.205,0 -1.318,-0.536 0.069,-0.176 c 0.127,0.049 0.235,0.068 0.322,0.068 0.078,0 0.146,-0.019 0.195,-0.059 0.049,-0.039 0.088,-0.116 0.108,-0.234 0.029,-0.117 0.038,-0.429 0.038,-0.956 l 0,-1.621 c 0,-0.312 -0.038,-0.527 -0.117,-0.644 -0.078,-0.108 -0.224,-0.166 -0.448,-0.166 l -0.098,0 0,-0.176 2.167,0 0,0.176 c -0.235,0 -0.401,0.019 -0.478,0.068 -0.078,0.039 -0.138,0.107 -0.186,0.195 -0.03,0.068 -0.049,0.254 -0.049,0.547 l 0,2.313 c 0.371,0.42 0.752,0.625 1.122,0.625 0.245,0 0.42,-0.088 0.517,-0.273 0.108,-0.176 0.157,-0.469 0.157,-0.869 l 0,-1.796 c 0,-0.254 -0.01,-0.401 -0.019,-0.45 -0.03,-0.117 -0.089,-0.205 -0.166,-0.273 -0.078,-0.058 -0.224,-0.088 -0.43,-0.088 l -0.087,0 0,-0.175 2.157,0 0,0.175 c -0.206,0 -0.352,0.02 -0.43,0.069 -0.078,0.039 -0.137,0.107 -0.165,0.185 -0.049,0.098 -0.069,0.283 -0.069,0.557 l 0,1.864 c 0,0.4 -0.039,0.693 -0.107,0.878 -0.098,0.274 -0.235,0.47 -0.41,0.596 -0.166,0.117 -0.371,0.175 -0.606,0.175 -0.468,0 -0.956,-0.302 -1.464,-0.917"
       style="fill:#000000;fill-opacity:1;fill-rule:nonzero;stroke:none"
       id="path40"
       inkscape:connector-curvature="0" /><path
       d="m 236.054,739.461 -0.206,0 -1.317,-0.536 0.068,-0.176 c 0.127,0.049 0.234,0.068 0.322,0.068 0.078,0 0.147,-0.019 0.196,-0.059 0.048,-0.039 0.078,-0.107 0.107,-0.215 0.029,-0.136 0.039,-0.448 0.039,-0.927 l 0,-1.669 c 0,-0.264 -0.019,-0.449 -0.059,-0.546 -0.049,-0.089 -0.108,-0.157 -0.186,-0.196 -0.078,-0.048 -0.215,-0.068 -0.42,-0.068 l 0,-0.175 2.158,0 0,0.175 c -0.235,0 -0.391,0.02 -0.469,0.068 -0.078,0.04 -0.137,0.098 -0.175,0.186 -0.04,0.088 -0.059,0.273 -0.059,0.556 l 0,2.343 c 0.146,0.176 0.341,0.332 0.605,0.478 0.166,0.088 0.341,0.137 0.508,0.137 0.253,0 0.449,-0.107 0.585,-0.312 0.108,-0.157 0.157,-0.41 0.157,-0.762 l 0,-1.884 c 0,-0.263 -0.011,-0.419 -0.02,-0.469 -0.039,-0.116 -0.098,-0.194 -0.195,-0.253 -0.088,-0.059 -0.254,-0.088 -0.488,-0.088 l 0,-0.176 2.196,0 0,0.176 c -0.224,0 -0.371,0.029 -0.469,0.078 -0.087,0.049 -0.156,0.108 -0.186,0.176 -0.028,0.078 -0.048,0.263 -0.048,0.556 l 0,2.089 -0.019,0.205 0.009,0.048 c 0.244,0.225 0.45,0.381 0.616,0.469 0.175,0.089 0.341,0.127 0.517,0.127 0.273,0 0.468,-0.097 0.595,-0.303 0.088,-0.146 0.127,-0.399 0.127,-0.751 l 0,-1.884 c 0,-0.253 -0.009,-0.409 -0.019,-0.458 -0.03,-0.108 -0.089,-0.196 -0.156,-0.244 -0.107,-0.068 -0.254,-0.108 -0.44,-0.108 l -0.088,0 0,-0.175 2.138,0 0,0.175 c -0.186,0 -0.322,0.03 -0.41,0.078 -0.089,0.049 -0.146,0.108 -0.176,0.176 -0.039,0.098 -0.059,0.283 -0.059,0.556 l 0,1.884 c 0,0.391 -0.039,0.684 -0.107,0.869 -0.107,0.264 -0.244,0.459 -0.43,0.586 -0.175,0.117 -0.38,0.175 -0.614,0.175 -0.235,0 -0.469,-0.058 -0.693,-0.175 -0.225,-0.127 -0.508,-0.371 -0.83,-0.762 -0.068,0.303 -0.206,0.537 -0.4,0.693 -0.196,0.166 -0.43,0.244 -0.703,0.244 -0.156,0 -0.323,-0.029 -0.489,-0.098 -0.156,-0.068 -0.312,-0.165 -0.458,-0.283 -0.059,-0.048 -0.244,-0.234 -0.556,-0.556"
       style="fill:#000000;fill-opacity:1;fill-rule:nonzero;stroke:none"
       id="path42"
       inkscape:connector-curvature="0" /><path
       d="m 151.391,673.134 18.437,0"
       style="fill:#c40003;fill-opacity:1;fill-rule:nonzero;stroke:none"
       id="path44"
       inkscape:connector-curvature="0" /><path
       d="m 172.433,673.134 c -1.226,-0.455 -2.747,-1.23 -3.689,-2.053 l 0.742,2.053 -0.742,2.053 c 0.942,-0.821 2.463,-1.598 3.689,-2.053"
       style="fill:#c40003;fill-opacity:1;fill-rule:nonzero;stroke:none"
       id="path46"
       inkscape:connector-curvature="0" /><path
       d="m 151.391,673.134 18.437,0"
       style="fill:none;stroke:#000000;stroke-width:0.43200001;stroke-linecap:butt;stroke-linejoin:miter;stroke-miterlimit:4;stroke-opacity:1;stroke-dasharray:none"
       id="path48"
       inkscape:connector-curvature="0" /><path
       d="m 172.433,673.134 c -1.226,-0.455 -2.747,-1.23 -3.689,-2.053 l 0.742,2.053 -0.742,2.053 c 0.942,-0.821 2.463,-1.598 3.689,-2.053"
       style="fill:#000000;fill-opacity:1;fill-rule:nonzero;stroke:none"
       id="path50"
       inkscape:connector-curvature="0" /><path
       d="m 121.993,678.294 -0.215,0 -1.318,-0.537 0.069,-0.176 c 0.136,0.049 0.244,0.079 0.332,0.079 0.078,0 0.146,-0.02 0.195,-0.068 0.049,-0.04 0.088,-0.117 0.107,-0.224 0.03,-0.118 0.04,-0.42 0.04,-0.918 l 0,-4.51 c 0.272,-0.186 0.536,-0.322 0.799,-0.419 0.264,-0.088 0.528,-0.138 0.781,-0.138 0.537,0 1.035,0.206 1.474,0.606 0.518,0.478 0.771,1.102 0.771,1.874 0,0.664 -0.165,1.19 -0.498,1.572 -0.332,0.38 -0.722,0.575 -1.171,0.575 -0.488,0 -0.947,-0.293 -1.367,-0.888 l 10e-4,3.172 z m 0.488,-3.093 c 0.165,0.087 0.331,0.127 0.507,0.127 0.313,0 0.596,-0.147 0.85,-0.45 0.244,-0.302 0.371,-0.732 0.371,-1.288 0,-0.605 -0.127,-1.064 -0.371,-1.377 -0.254,-0.321 -0.517,-0.478 -0.81,-0.478 -0.186,0 -0.362,0.039 -0.528,0.117 -0.175,0.088 -0.341,0.205 -0.507,0.361 l 0,2.606 c 0.195,0.186 0.361,0.313 0.488,0.382"
       style="fill:#000000;fill-opacity:1;fill-rule:nonzero;stroke:none"
       id="path52"
       inkscape:connector-curvature="0" /><path
       d="m 125.543,675.328 5.1343,0 0,0.38971 -5.1343,0 0,-0.38971 z m 0,-1.553 5.134,0 0,0.39 -5.134,0"
       style="fill:#000000;fill-opacity:1;fill-rule:nonzero;stroke:none"
       id="path54"
       inkscape:connector-curvature="0" /><path
       d="m 131.718,672.497 c 0.41,-0.733 0.927,-1.093 1.542,-1.093 0.313,0 0.634,0.116 0.967,0.35 0.332,0.244 0.614,0.625 0.829,1.143 0.215,0.526 0.322,1.161 0.322,1.913 0,1.063 -0.244,1.912 -0.742,2.537 -0.391,0.507 -0.84,0.761 -1.327,0.761 -0.312,0 -0.605,-0.108 -0.889,-0.312 -0.37,-0.254 -0.663,-0.653 -0.888,-1.18 -0.224,-0.537 -0.331,-1.172 -0.331,-1.904 0,-0.869 0.175,-1.601 0.516,-2.216 l 10e-4,10e-4 z m 0.547,3.767 c 0.077,0.566 0.234,0.977 0.458,1.239 0.176,0.196 0.361,0.293 0.576,0.293 0.186,0 0.341,-0.049 0.469,-0.156 0.186,-0.156 0.332,-0.41 0.449,-0.78 0.146,-0.488 0.224,-1.104 0.224,-1.835 0,-0.996 -0.069,-1.767 -0.214,-2.314 -0.098,-0.361 -0.235,-0.624 -0.42,-0.771 -0.186,-0.156 -0.362,-0.235 -0.538,-0.235 -0.351,0 -0.624,0.235 -0.799,0.713 -0.225,0.557 -0.332,1.288 -0.332,2.177 0,0.546 0.038,1.103 0.127,1.669"
       style="fill:#000000;fill-opacity:1;fill-rule:nonzero;stroke:none"
       id="path56"
       inkscape:connector-curvature="0" /><path
       d="m 137.308,676.01 -0.205,0 -1.318,-0.537 0.069,-0.176 c 0.127,0.049 0.234,0.069 0.322,0.069 0.078,0 0.146,-0.02 0.195,-0.059 0.049,-0.039 0.088,-0.117 0.107,-0.234 0.03,-0.118 0.04,-0.43 0.04,-0.957 l 0,-1.62 c 0,-0.312 -0.04,-0.527 -0.118,-0.645 -0.078,-0.107 -0.224,-0.165 -0.448,-0.165 l -0.098,0 0,-0.176 2.166,0 0,0.176 c -0.234,0 -0.4,0.019 -0.478,0.068 -0.078,0.039 -0.136,0.108 -0.185,0.196 -0.029,0.067 -0.049,0.253 -0.049,0.546 l 0,2.313 c 0.371,0.419 0.752,0.625 1.122,0.625 0.244,0 0.42,-0.089 0.518,-0.273 0.107,-0.176 0.156,-0.469 0.156,-0.87 l 0,-1.795 c 0,-0.254 -0.01,-0.401 -0.02,-0.45 -0.029,-0.116 -0.088,-0.204 -0.166,-0.272 -0.078,-0.059 -0.224,-0.089 -0.429,-0.089 l -0.088,0 0,-0.176 2.158,0 0,0.176 c -0.206,0 -0.352,0.02 -0.43,0.068 -0.078,0.039 -0.136,0.108 -0.166,0.186 -0.049,0.097 -0.068,0.283 -0.068,0.557 l 0,1.864 c 0,0.399 -0.039,0.692 -0.108,0.879 -0.097,0.272 -0.234,0.468 -0.41,0.594 -0.166,0.118 -0.371,0.176 -0.605,0.176 -0.468,0 -0.957,-0.303 -1.464,-0.918"
       style="fill:#000000;fill-opacity:1;fill-rule:nonzero;stroke:none"
       id="path58"
       inkscape:connector-curvature="0" /><path
       d="m 142.258,676.01 -0.205,0 -1.318,-0.537 0.068,-0.176 c 0.127,0.049 0.235,0.069 0.322,0.069 0.079,0 0.146,-0.02 0.195,-0.059 0.049,-0.039 0.078,-0.107 0.107,-0.215 0.03,-0.137 0.04,-0.449 0.04,-0.927 l 0,-1.669 c 0,-0.264 -0.02,-0.449 -0.059,-0.546 -0.049,-0.088 -0.108,-0.157 -0.186,-0.196 -0.078,-0.049 -0.215,-0.068 -0.42,-0.068 l 0,-0.176 2.157,0 0,0.176 c -0.234,0 -0.39,0.019 -0.468,0.068 -0.078,0.039 -0.137,0.098 -0.176,0.186 -0.039,0.088 -0.058,0.273 -0.058,0.557 l 0,2.341 c 0.146,0.176 0.341,0.332 0.605,0.479 0.166,0.088 0.341,0.137 0.508,0.137 0.253,0 0.448,-0.108 0.585,-0.313 0.107,-0.155 0.156,-0.409 0.156,-0.761 l 0,-1.883 c 0,-0.264 -0.009,-0.419 -0.019,-0.469 -0.039,-0.117 -0.098,-0.196 -0.195,-0.254 -0.088,-0.059 -0.254,-0.088 -0.488,-0.088 l 0,-0.176 2.196,0 0,0.176 c -0.224,0 -0.371,0.029 -0.469,0.078 -0.088,0.049 -0.156,0.108 -0.185,0.176 -0.03,0.078 -0.049,0.263 -0.049,0.556 l 0,2.088 -0.019,0.205 0.01,0.049 c 0.243,0.225 0.448,0.381 0.615,0.469 0.176,0.088 0.341,0.127 0.517,0.127 0.273,0 0.469,-0.098 0.595,-0.303 0.088,-0.145 0.127,-0.399 0.127,-0.751 l 0,-1.883 c 0,-0.254 -0.01,-0.411 -0.019,-0.459 -0.029,-0.108 -0.088,-0.195 -0.156,-0.245 -0.107,-0.067 -0.254,-0.107 -0.44,-0.107 l -0.088,0 0,-0.176 2.138,0 0,0.176 c -0.186,0 -0.322,0.03 -0.41,0.078 -0.088,0.049 -0.147,0.108 -0.176,0.176 -0.039,0.098 -0.058,0.283 -0.058,0.557 l 0,1.883 c 0,0.391 -0.04,0.683 -0.108,0.868 -0.108,0.264 -0.244,0.459 -0.43,0.586 -0.175,0.118 -0.381,0.176 -0.615,0.176 -0.234,0 -0.469,-0.058 -0.693,-0.176 -0.224,-0.127 -0.507,-0.371 -0.829,-0.761 -0.069,0.302 -0.205,0.537 -0.401,0.693 -0.194,0.165 -0.429,0.243 -0.702,0.243 -0.157,0 -0.323,-0.029 -0.489,-0.096 -0.156,-0.069 -0.312,-0.166 -0.459,-0.284 -0.058,-0.049 -0.243,-0.235 -0.556,-0.556"
       style="fill:#000000;fill-opacity:1;fill-rule:nonzero;stroke:none"
       id="path60"
       inkscape:connector-curvature="0" /><path
       d="m 155.186,694.827 18.438,0"
       style="fill:none;stroke:#000000;stroke-width:0.43200001;stroke-linecap:butt;stroke-linejoin:miter;stroke-miterlimit:4;stroke-opacity:1;stroke-dasharray:none"
       id="path62"
       inkscape:connector-curvature="0" /><path
       d="m 176.229,694.827 c -1.226,-0.455 -2.746,-1.232 -3.689,-2.053 l 0.742,2.053 -0.742,2.051 c 0.943,-0.821 2.463,-1.597 3.689,-2.051"
       style="fill:#000000;fill-opacity:1;fill-rule:nonzero;stroke:none"
       id="path64"
       inkscape:connector-curvature="0" /><path
       d="m 121.432,699.963 -0.215,0 -1.318,-0.537 0.069,-0.176 c 0.136,0.049 0.244,0.078 0.332,0.078 0.078,0 0.146,-0.019 0.195,-0.068 0.048,-0.039 0.088,-0.117 0.108,-0.224 0.029,-0.118 0.039,-0.42 0.039,-0.918 l 0,-4.51 c 0.273,-0.186 0.536,-0.321 0.799,-0.419 0.264,-0.088 0.527,-0.137 0.781,-0.137 0.537,0 1.035,0.205 1.474,0.605 0.517,0.478 0.771,1.102 0.771,1.874 0,0.664 -0.165,1.191 -0.498,1.571 -0.332,0.382 -0.722,0.576 -1.171,0.576 -0.488,0 -0.947,-0.293 -1.367,-0.889 l 0.001,3.174 z m 0.487,-3.095 c 0.166,0.088 0.332,0.127 0.508,0.127 0.313,0 0.596,-0.147 0.849,-0.449 0.244,-0.302 0.371,-0.732 0.371,-1.288 0,-0.605 -0.127,-1.064 -0.371,-1.377 -0.253,-0.322 -0.516,-0.477 -0.81,-0.477 -0.185,0 -0.361,0.038 -0.527,0.116 -0.175,0.088 -0.341,0.205 -0.507,0.361 l 0,2.607 c 0.195,0.185 0.361,0.312 0.488,0.38"
       style="fill:#000000;fill-opacity:1;fill-rule:nonzero;stroke:none"
       id="path66"
       inkscape:connector-curvature="0" /><path
       d="m 124.982,696.995 5.1343,0 0,0.39062 -5.1343,0 0,-0.39062 z m 0,-1.552 5.134,0 0,0.39 -5.134,0"
       style="fill:#000000;fill-opacity:1;fill-rule:nonzero;stroke:none"
       id="path68"
       inkscape:connector-curvature="0" /><path
       d="m 131.532,698.87 c 0.214,0.097 0.38,0.146 0.498,0.146 0.077,0 0.156,-0.019 0.215,-0.068 0.058,-0.049 0.097,-0.127 0.116,-0.225 0.03,-0.137 0.049,-0.439 0.049,-0.908 l 0,-3.494 c 0,-0.39 -0.019,-0.624 -0.049,-0.702 -0.039,-0.08 -0.097,-0.137 -0.185,-0.187 -0.098,-0.048 -0.293,-0.067 -0.596,-0.077 l 0,-0.176 2.441,0 0,0.176 c -0.293,0.01 -0.488,0.029 -0.586,0.077 -0.098,0.049 -0.156,0.117 -0.186,0.206 -0.029,0.097 -0.048,0.321 -0.048,0.683 l 0,5.457 -0.157,0 -1.581,-0.762"
       style="fill:#000000;fill-opacity:1;fill-rule:nonzero;stroke:none"
       id="path70"
       inkscape:connector-curvature="0" /><path
       d="m 136.078,694.164 c 0.409,-0.732 0.926,-1.093 1.541,-1.093 0.313,0 0.635,0.117 0.967,0.351 0.332,0.244 0.615,0.625 0.83,1.143 0.215,0.527 0.322,1.161 0.322,1.913 0,1.063 -0.244,1.913 -0.743,2.538 -0.39,0.507 -0.839,0.761 -1.327,0.761 -0.312,0 -0.605,-0.108 -0.888,-0.312 -0.371,-0.254 -0.664,-0.654 -0.888,-1.181 -0.225,-0.537 -0.332,-1.172 -0.332,-1.905 0,-0.868 0.176,-1.6 0.517,-2.215 l 0.001,0 z m 0.546,3.768 c 0.078,0.566 0.234,0.977 0.458,1.24 0.176,0.196 0.362,0.293 0.577,0.293 0.185,0 0.341,-0.049 0.468,-0.156 0.186,-0.156 0.332,-0.41 0.45,-0.781 0.146,-0.489 0.224,-1.103 0.224,-1.835 0,-0.996 -0.069,-1.767 -0.215,-2.314 -0.097,-0.361 -0.234,-0.624 -0.42,-0.771 -0.186,-0.156 -0.361,-0.235 -0.537,-0.235 -0.351,0 -0.625,0.235 -0.8,0.713 -0.225,0.557 -0.332,1.288 -0.332,2.177 0,0.546 0.039,1.103 0.127,1.669"
       style="fill:#000000;fill-opacity:1;fill-rule:nonzero;stroke:none"
       id="path72"
       inkscape:connector-curvature="0" /><path
       d="m 141.667,697.678 -0.205,0 -1.318,-0.537 0.069,-0.176 c 0.127,0.05 0.235,0.069 0.323,0.069 0.077,0 0.146,-0.019 0.194,-0.059 0.049,-0.039 0.088,-0.117 0.108,-0.234 0.029,-0.118 0.039,-0.43 0.039,-0.956 l 0,-1.621 c 0,-0.312 -0.039,-0.527 -0.117,-0.644 -0.078,-0.107 -0.224,-0.166 -0.449,-0.166 l -0.098,0 0,-0.176 2.167,0 0,0.176 c -0.234,0 -0.4,0.019 -0.478,0.068 -0.078,0.039 -0.137,0.108 -0.186,0.196 -0.029,0.067 -0.049,0.254 -0.049,0.546 l 0,2.313 c 0.372,0.42 0.752,0.625 1.123,0.625 0.244,0 0.419,-0.088 0.517,-0.273 0.108,-0.176 0.156,-0.469 0.156,-0.87 l 0,-1.795 c 0,-0.254 -0.01,-0.4 -0.019,-0.45 -0.029,-0.116 -0.088,-0.204 -0.166,-0.272 -0.078,-0.059 -0.224,-0.088 -0.429,-0.088 l -0.088,0 0,-0.176 2.157,0 0,0.176 c -0.205,0 -0.352,0.018 -0.43,0.067 -0.078,0.04 -0.136,0.109 -0.165,0.186 -0.049,0.098 -0.069,0.283 -0.069,0.557 l 0,1.864 c 0,0.4 -0.039,0.693 -0.107,0.879 -0.098,0.273 -0.235,0.468 -0.41,0.595 -0.166,0.118 -0.371,0.176 -0.605,0.176 -0.468,0 -0.957,-0.303 -1.465,-0.918"
       style="fill:#000000;fill-opacity:1;fill-rule:nonzero;stroke:none"
       id="path74"
       inkscape:connector-curvature="0" /><path
       d="m 146.574,697.678 -0.205,0 -1.318,-0.537 0.068,-0.176 c 0.128,0.05 0.235,0.069 0.322,0.069 0.079,0 0.147,-0.019 0.196,-0.059 0.049,-0.039 0.078,-0.107 0.107,-0.215 0.029,-0.137 0.039,-0.449 0.039,-0.927 l 0,-1.669 c 0,-0.264 -0.019,-0.449 -0.058,-0.546 -0.05,-0.088 -0.108,-0.157 -0.187,-0.196 -0.078,-0.049 -0.214,-0.067 -0.419,-0.067 l 0,-0.176 2.157,0 0,0.176 c -0.235,0 -0.39,0.018 -0.469,0.067 -0.078,0.04 -0.136,0.098 -0.175,0.186 -0.039,0.089 -0.059,0.273 -0.059,0.556 l 0,2.342 c 0.146,0.176 0.342,0.333 0.605,0.479 0.166,0.089 0.341,0.137 0.508,0.137 0.253,0 0.449,-0.107 0.585,-0.313 0.108,-0.156 0.157,-0.41 0.157,-0.761 l 0,-1.884 c 0,-0.263 -0.01,-0.418 -0.02,-0.468 -0.039,-0.118 -0.097,-0.196 -0.195,-0.254 -0.088,-0.059 -0.254,-0.088 -0.488,-0.088 l 0,-0.176 2.196,0 0,0.176 c -0.224,0 -0.37,0.029 -0.468,0.078 -0.088,0.049 -0.156,0.107 -0.185,0.176 -0.03,0.078 -0.05,0.264 -0.05,0.556 l 0,2.088 -0.019,0.205 0.01,0.049 c 0.244,0.225 0.449,0.381 0.615,0.469 0.176,0.088 0.341,0.127 0.518,0.127 0.273,0 0.468,-0.098 0.594,-0.303 0.089,-0.146 0.127,-0.4 0.127,-0.751 l 0,-1.884 c 0,-0.253 -0.009,-0.41 -0.019,-0.459 -0.029,-0.107 -0.088,-0.194 -0.156,-0.243 -0.107,-0.068 -0.254,-0.107 -0.439,-0.107 l -0.089,0 0,-0.176 2.138,0 0,0.176 c -0.186,0 -0.322,0.029 -0.41,0.077 -0.088,0.049 -0.146,0.107 -0.175,0.176 -0.04,0.097 -0.059,0.283 -0.059,0.556 l 0,1.884 c 0,0.391 -0.04,0.683 -0.107,0.868 -0.108,0.265 -0.245,0.459 -0.43,0.586 -0.176,0.118 -0.381,0.176 -0.615,0.176 -0.235,0 -0.469,-0.058 -0.693,-0.176 -0.225,-0.127 -0.508,-0.37 -0.83,-0.761 -0.068,0.302 -0.205,0.537 -0.4,0.693 -0.195,0.166 -0.429,0.244 -0.703,0.244 -0.156,0 -0.322,-0.029 -0.488,-0.098 -0.156,-0.068 -0.313,-0.166 -0.459,-0.283 -0.059,-0.049 -0.244,-0.234 -0.556,-0.556"
       style="fill:#000000;fill-opacity:1;fill-rule:nonzero;stroke:none"
       id="path76"
       inkscape:connector-curvature="0" /><g
       id="g78"><g
         id="g80"
         clip-path="url(#clipPath82)"><path
           d="m 108.157,663.106 0,107.946 m 145.153,-107.946 -145.153,0 m 145.153,107.946 0,-107.946 m -145.153,107.946 145.153,0"
           style="fill:none;stroke:#000000;stroke-width:0.43200001;stroke-linecap:round;stroke-linejoin:round;stroke-miterlimit:10;stroke-opacity:1;stroke-dasharray:none"
           id="path86"
           inkscape:connector-curvature="0" /></g></g><path
       d="m 104.399,652.797 c -0.731,0 0,0 -0.731,0 0,4.653 0,0 0,4.653 -0.175,-0.168 -0.406,-0.335 -0.691,-0.504 -0.286,-0.167 -0.542,-0.293 -0.77,-0.376 0,0.706 0,0 0,0.706 0.409,0.192 0.766,0.425 1.071,0.699 0.307,0.272 0.523,0.537 0.65,0.793 0.471,0 0,0 0.471,0 0,-5.971 0,0 0,-5.971"
       style="fill:#000000;fill-opacity:1;fill-rule:nonzero;stroke:none"
       id="path88"
       inkscape:connector-curvature="0" /><path
       d="m 107.008,655.729 c 0,-0.975 0.114,-1.626 0.343,-1.948 0.229,-0.323 0.51,-0.484 0.846,-0.484 0.335,0 0.617,0.162 0.846,0.486 0.229,0.325 0.343,0.974 0.343,1.946 0,0.981 -0.114,1.631 -0.343,1.953 -0.229,0.321 -0.513,0.483 -0.854,0.483 -0.335,0 -0.604,-0.144 -0.803,-0.427 -0.252,-0.362 -0.378,-1.032 -0.378,-2.009 z m -0.751,0 c 0,0.704 0.073,1.27 0.218,1.699 0.145,0.428 0.36,0.759 0.645,0.992 0.285,0.232 0.644,0.348 1.077,0.348 0.32,0 0.599,-0.064 0.84,-0.192 0.241,-0.128 0.44,-0.314 0.596,-0.557 0.157,-0.241 0.28,-0.535 0.369,-0.883 0.09,-0.347 0.134,-0.817 0.134,-1.407 0,-0.697 -0.071,-1.26 -0.214,-1.689 -0.144,-0.43 -0.358,-0.76 -0.643,-0.994 -0.285,-0.234 -0.647,-0.351 -1.082,-0.351 -0.573,0 -1.024,0.206 -1.352,0.617 -0.391,0.496 -0.588,1.301 -0.588,2.417"
       style="fill:#000000;fill-opacity:1;fill-rule:nonzero;stroke:none"
       id="path90"
       inkscape:connector-curvature="0" /><path
       d="m 111.245,657.349 c 0,0.527 0,0 0,0.527 1.614,0 0,0 1.614,0 0,-0.527 0,0 0,-0.527 -1.614,0 0,0 -1.614,0"
       style="fill:#000000;fill-opacity:1;fill-rule:nonzero;stroke:none"
       id="path92"
       inkscape:connector-curvature="0" /><path
       d="m 113.901,657.45 c 0,-0.181 0.039,-0.353 0.115,-0.518 0.078,-0.166 0.185,-0.291 0.323,-0.378 0.138,-0.086 0.283,-0.131 0.434,-0.131 0.224,0 0.413,0.09 0.574,0.268 0.159,0.179 0.238,0.422 0.238,0.731 0,0.295 -0.079,0.527 -0.236,0.699 -0.157,0.169 -0.356,0.255 -0.596,0.255 -0.237,0 -0.438,-0.086 -0.604,-0.255 -0.165,-0.172 -0.248,-0.395 -0.248,-0.671 z m 2.146,1.844 c -0.523,-0.04 0,0 -0.523,-0.04 -0.046,0.207 -0.113,0.356 -0.199,0.45 -0.141,0.149 -0.316,0.225 -0.525,0.225 -0.167,0 -0.314,-0.047 -0.44,-0.142 -0.166,-0.119 -0.297,-0.295 -0.391,-0.527 -0.096,-0.232 -0.146,-0.562 -0.15,-0.991 0.127,0.195 0.282,0.336 0.465,0.43 0.183,0.094 0.374,0.141 0.574,0.141 0.352,0 0.65,-0.129 0.895,-0.387 0.246,-0.258 0.37,-0.591 0.37,-1 0,-0.269 -0.058,-0.519 -0.174,-0.748 -0.116,-0.231 -0.275,-0.408 -0.478,-0.53 -0.202,-0.123 -0.432,-0.184 -0.689,-0.184 -0.437,0 -0.794,0.161 -1.071,0.483 -0.277,0.322 -0.414,0.852 -0.414,1.592 0,0.827 0.152,1.428 0.458,1.804 0.267,0.327 0.626,0.489 1.077,0.489 0.337,0 0.613,-0.093 0.828,-0.281 0.215,-0.189 0.344,-0.45 0.387,-0.784"
       style="fill:#000000;fill-opacity:1;fill-rule:nonzero;stroke:none"
       id="path94"
       inkscape:connector-curvature="0" /><path
       d="m 152.804,652.797 c -0.731,0 0,0 -0.731,0 0,4.653 0,0 0,4.653 -0.176,-0.168 -0.407,-0.335 -0.693,-0.504 -0.285,-0.167 -0.541,-0.293 -0.768,-0.376 0,0.706 0,0 0,0.706 0.408,0.192 0.765,0.425 1.071,0.699 0.305,0.272 0.523,0.537 0.649,0.793 0.472,0 0,0 0.472,0 0,-5.971 0,0 0,-5.971"
       style="fill:#000000;fill-opacity:1;fill-rule:nonzero;stroke:none"
       id="path96"
       inkscape:connector-curvature="0" /><path
       d="m 155.413,655.729 c 0,-0.975 0.114,-1.626 0.342,-1.948 0.229,-0.323 0.511,-0.484 0.847,-0.484 0.335,0 0.618,0.162 0.845,0.486 0.229,0.325 0.343,0.974 0.343,1.946 0,0.981 -0.114,1.631 -0.343,1.953 -0.227,0.321 -0.513,0.483 -0.854,0.483 -0.335,0 -0.603,-0.144 -0.803,-0.427 -0.252,-0.362 -0.377,-1.032 -0.377,-2.009 z m -0.752,0 c 0,0.704 0.073,1.27 0.218,1.699 0.145,0.428 0.36,0.759 0.644,0.992 0.286,0.232 0.645,0.348 1.079,0.348 0.319,0 0.599,-0.064 0.839,-0.192 0.241,-0.128 0.44,-0.314 0.597,-0.557 0.157,-0.241 0.28,-0.535 0.369,-0.883 0.089,-0.347 0.134,-0.817 0.134,-1.407 0,-0.697 -0.071,-1.26 -0.215,-1.689 -0.143,-0.43 -0.357,-0.76 -0.643,-0.994 -0.286,-0.234 -0.646,-0.351 -1.081,-0.351 -0.574,0 -1.025,0.206 -1.352,0.617 -0.392,0.496 -0.589,1.301 -0.589,2.417"
       style="fill:#000000;fill-opacity:1;fill-rule:nonzero;stroke:none"
       id="path98"
       inkscape:connector-curvature="0" /><path
       d="m 159.838,656.983 c 0,0.556 0,0 0,0.556 1.7,0 0,0 1.7,0 0,-0.556 0,0 0,-0.556 -1.7,0 0,0 -1.7,0"
       style="fill:#000000;fill-opacity:1;fill-rule:nonzero;stroke:none"
       id="path100"
       inkscape:connector-curvature="0" /><path
       d="m 163.796,657.217 c 0,2.031 0,0 0,2.031 -1.41,-2.031 0,0 -1.41,-2.031 1.41,0 0,0 1.41,0 z m 0,-1.585 c 0,1.079 0,0 0,1.079 -1.954,0 0,0 -1.954,0 0,0.506 0,0 0,0.506 2.055,2.919 0,0 2.055,2.919 0.453,0 0,0 0.453,0 0,-2.919 0,0 0,-2.919 0.607,0 0,0 0.607,0 0,-0.506 0,0 0,-0.506 -0.607,0 0,0 -0.607,0 0,-1.079 0,0 0,-1.079 -0.554,0 0,0 -0.554,0"
       style="fill:#000000;fill-opacity:1;fill-rule:nonzero;stroke:none"
       id="path102"
       inkscape:connector-curvature="0" /><path
       d="m 201.147,652.797 c -0.731,0 0,0 -0.731,0 0,4.653 0,0 0,4.653 -0.175,-0.168 -0.406,-0.335 -0.691,-0.504 -0.285,-0.167 -0.543,-0.293 -0.769,-0.376 0,0.706 0,0 0,0.706 0.408,0.192 0.764,0.425 1.07,0.699 0.307,0.272 0.523,0.537 0.65,0.793 0.471,0 0,0 0.471,0 0,-5.971 0,0 0,-5.971"
       style="fill:#000000;fill-opacity:1;fill-rule:nonzero;stroke:none"
       id="path104"
       inkscape:connector-curvature="0" /><path
       d="m 203.756,655.729 c 0,-0.975 0.114,-1.626 0.343,-1.948 0.228,-0.323 0.51,-0.484 0.847,-0.484 0.335,0 0.617,0.162 0.845,0.486 0.228,0.325 0.343,0.974 0.343,1.946 0,0.981 -0.115,1.631 -0.343,1.953 -0.228,0.321 -0.513,0.483 -0.854,0.483 -0.336,0 -0.604,-0.144 -0.803,-0.427 -0.252,-0.362 -0.378,-1.032 -0.378,-2.009 z m -0.752,0 c 0,0.704 0.074,1.27 0.218,1.699 0.145,0.428 0.361,0.759 0.646,0.992 0.285,0.232 0.644,0.348 1.078,0.348 0.318,0 0.598,-0.064 0.839,-0.192 0.242,-0.128 0.44,-0.314 0.596,-0.557 0.157,-0.241 0.281,-0.535 0.37,-0.883 0.089,-0.347 0.135,-0.817 0.135,-1.407 0,-0.697 -0.073,-1.26 -0.217,-1.689 -0.143,-0.43 -0.357,-0.76 -0.642,-0.994 -0.285,-0.234 -0.647,-0.351 -1.081,-0.351 -0.575,0 -1.024,0.206 -1.352,0.617 -0.392,0.496 -0.59,1.301 -0.59,2.417"
       style="fill:#000000;fill-opacity:1;fill-rule:nonzero;stroke:none"
       id="path106"
       inkscape:connector-curvature="0" /><path
       d="m 207.807,657.704 c 0,0.501 0,0 0,0.501 1.529,0 0,0 1.529,0 0,-0.501 0,0 0,-0.501 -1.529,0 0,0 -1.529,0"
       style="fill:#000000;fill-opacity:1;fill-rule:nonzero;stroke:none"
       id="path108"
       inkscape:connector-curvature="0" /><path
       d="m 212.39,656.966 c 0,-0.478 0,0 0,-0.478 -2.681,0 0,0 -2.681,0 -0.002,0.119 0.016,0.235 0.058,0.345 0.07,0.183 0.178,0.361 0.328,0.538 0.15,0.179 0.368,0.383 0.652,0.614 0.441,0.362 0.739,0.649 0.894,0.859 0.154,0.211 0.231,0.411 0.231,0.599 0,0.197 -0.069,0.364 -0.211,0.499 -0.142,0.136 -0.324,0.202 -0.552,0.202 -0.239,0 -0.431,-0.071 -0.575,-0.214 -0.144,-0.143 -0.217,-0.343 -0.219,-0.598 -0.511,0.053 0,0 -0.511,0.053 0.035,0.383 0.167,0.673 0.396,0.872 0.228,0.2 0.536,0.3 0.92,0.3 0.389,0 0.698,-0.108 0.925,-0.323 0.225,-0.217 0.34,-0.484 0.34,-0.801 0,-0.164 -0.034,-0.323 -0.099,-0.479 -0.068,-0.158 -0.178,-0.323 -0.332,-0.495 -0.153,-0.174 -0.41,-0.411 -0.767,-0.713 -0.299,-0.252 -0.489,-0.421 -0.575,-0.511 -0.085,-0.09 -0.156,-0.178 -0.211,-0.269 1.989,0 0,0 1.989,0"
       style="fill:#000000;fill-opacity:1;fill-rule:nonzero;stroke:none"
       id="path110"
       inkscape:connector-curvature="0" /><path
       d="m 250.401,652.797 c -0.731,0 0,0 -0.731,0 0,4.653 0,0 0,4.653 -0.176,-0.168 -0.407,-0.335 -0.693,-0.504 -0.284,-0.167 -0.541,-0.293 -0.768,-0.376 0,0.706 0,0 0,0.706 0.409,0.192 0.765,0.425 1.071,0.699 0.307,0.272 0.523,0.537 0.65,0.793 0.471,0 0,0 0.471,0 0,-5.971 0,0 0,-5.971"
       style="fill:#000000;fill-opacity:1;fill-rule:nonzero;stroke:none"
       id="path112"
       inkscape:connector-curvature="0" /><path
       d="m 253.009,655.729 c 0,-0.975 0.115,-1.626 0.344,-1.948 0.228,-0.323 0.511,-0.484 0.847,-0.484 0.335,0 0.616,0.162 0.844,0.486 0.23,0.325 0.344,0.974 0.344,1.946 0,0.981 -0.114,1.631 -0.344,1.953 -0.228,0.321 -0.513,0.483 -0.853,0.483 -0.337,0 -0.604,-0.144 -0.804,-0.427 -0.251,-0.362 -0.378,-1.032 -0.378,-2.009 z m -0.751,0 c 0,0.704 0.074,1.27 0.217,1.699 0.146,0.428 0.359,0.759 0.647,0.992 0.285,0.232 0.644,0.348 1.078,0.348 0.316,0 0.598,-0.064 0.837,-0.192 0.241,-0.128 0.441,-0.314 0.599,-0.557 0.156,-0.241 0.279,-0.535 0.367,-0.883 0.09,-0.347 0.135,-0.817 0.135,-1.407 0,-0.697 -0.071,-1.26 -0.215,-1.689 -0.143,-0.43 -0.357,-0.76 -0.644,-0.994 -0.285,-0.234 -0.645,-0.351 -1.079,-0.351 -0.575,0 -1.024,0.206 -1.352,0.617 -0.393,0.496 -0.59,1.301 -0.59,2.417"
       style="fill:#000000;fill-opacity:1;fill-rule:nonzero;stroke:none"
       id="path114"
       inkscape:connector-curvature="0" /><path
       d="m 258.272,657.858 c 0,-0.74 0.086,-1.231 0.258,-1.476 0.174,-0.244 0.388,-0.367 0.642,-0.367 0.254,0 0.468,0.124 0.641,0.368 0.172,0.246 0.258,0.737 0.258,1.475 0,0.743 -0.086,1.234 -0.258,1.477 -0.173,0.243 -0.389,0.367 -0.647,0.367 -0.255,0 -0.457,-0.108 -0.609,-0.324 -0.19,-0.274 -0.285,-0.781 -0.285,-1.52 z m -0.569,0 c 0,0.533 0.054,0.962 0.164,1.284 0.109,0.326 0.273,0.577 0.489,0.752 0.217,0.178 0.488,0.265 0.816,0.265 0.243,0 0.454,-0.048 0.635,-0.146 0.183,-0.096 0.334,-0.237 0.453,-0.42 0.118,-0.183 0.211,-0.407 0.279,-0.67 0.067,-0.264 0.101,-0.618 0.101,-1.065 0,-0.529 -0.054,-0.955 -0.163,-1.28 -0.108,-0.324 -0.27,-0.575 -0.485,-0.752 -0.217,-0.178 -0.491,-0.265 -0.82,-0.265 -0.435,0 -0.776,0.155 -1.024,0.465 -0.296,0.375 -0.445,0.987 -0.445,1.832"
       style="fill:#000000;fill-opacity:1;fill-rule:nonzero;stroke:none"
       id="path116"
       inkscape:connector-curvature="0" /><path
       d="m 102.398,663.734 c 0,-0.975 0.115,-1.625 0.343,-1.949 0.229,-0.322 0.511,-0.484 0.846,-0.484 0.335,0 0.617,0.163 0.846,0.487 0.228,0.324 0.343,0.973 0.343,1.946 0,0.98 -0.115,1.63 -0.343,1.951 -0.229,0.323 -0.513,0.484 -0.854,0.484 -0.336,0 -0.604,-0.142 -0.803,-0.426 -0.252,-0.362 -0.378,-1.032 -0.378,-2.009 z m -0.751,0 c 0,0.703 0.073,1.27 0.217,1.698 0.145,0.429 0.361,0.76 0.645,0.993 0.286,0.232 0.645,0.348 1.078,0.348 0.32,0 0.599,-0.063 0.84,-0.193 0.24,-0.128 0.439,-0.313 0.597,-0.555 0.157,-0.242 0.28,-0.537 0.369,-0.884 0.089,-0.348 0.133,-0.817 0.133,-1.407 0,-0.697 -0.071,-1.26 -0.215,-1.689 -0.143,-0.429 -0.357,-0.759 -0.642,-0.993 -0.286,-0.235 -0.646,-0.352 -1.082,-0.352 -0.573,0 -1.024,0.206 -1.351,0.617 -0.392,0.495 -0.589,1.301 -0.589,2.417"
       style="fill:#000000;fill-opacity:1;fill-rule:nonzero;stroke:none"
       id="path118"
       inkscape:connector-curvature="0" /><path
       d="m 99.788,686.212 c -0.73,0 0,0 -0.73,0 0,4.653 0,0 0,4.653 -0.175,-0.168 -0.406,-0.335 -0.692,-0.502 -0.285,-0.169 -0.541,-0.295 -0.769,-0.378 0,0.706 0,0 0,0.706 0.409,0.192 0.766,0.425 1.072,0.697 0.306,0.273 0.522,0.538 0.649,0.796 0.47,0 0,0 0.47,0 0,-5.972 0,0 0,-5.972"
       style="fill:#000000;fill-opacity:1;fill-rule:nonzero;stroke:none"
       id="path120"
       inkscape:connector-curvature="0" /><path
       d="m 102.398,689.145 c 0,-0.977 0.115,-1.626 0.343,-1.949 0.229,-0.324 0.511,-0.486 0.846,-0.486 0.335,0 0.617,0.162 0.846,0.488 0.228,0.324 0.343,0.973 0.343,1.947 0,0.978 -0.115,1.63 -0.343,1.951 -0.229,0.322 -0.513,0.483 -0.854,0.483 -0.336,0 -0.604,-0.142 -0.803,-0.425 -0.252,-0.364 -0.378,-1.033 -0.378,-2.009 z m -0.751,0 c 0,0.703 0.073,1.269 0.217,1.697 0.145,0.43 0.361,0.761 0.645,0.993 0.286,0.232 0.645,0.349 1.078,0.349 0.32,0 0.599,-0.064 0.84,-0.193 0.24,-0.128 0.439,-0.314 0.597,-0.556 0.157,-0.241 0.28,-0.537 0.369,-0.884 0.089,-0.348 0.133,-0.816 0.133,-1.406 0,-0.697 -0.071,-1.261 -0.215,-1.69 -0.143,-0.428 -0.357,-0.759 -0.642,-0.993 -0.286,-0.234 -0.646,-0.351 -1.082,-0.351 -0.573,0 -1.024,0.205 -1.351,0.616 -0.392,0.496 -0.589,1.302 -0.589,2.418"
       style="fill:#000000;fill-opacity:1;fill-rule:nonzero;stroke:none"
       id="path122"
       inkscape:connector-curvature="0" /><path
       d="m 100.876,712.324 c 0,-0.702 0,0 0,-0.702 -3.932,0 0,0 -3.932,0 -0.005,0.176 0.023,0.345 0.086,0.507 0.099,0.268 0.26,0.532 0.48,0.791 0.22,0.259 0.539,0.56 0.956,0.9 0.646,0.53 1.084,0.951 1.31,1.26 0.228,0.31 0.341,0.603 0.341,0.878 0,0.289 -0.103,0.534 -0.31,0.733 -0.207,0.198 -0.476,0.298 -0.809,0.298 -0.353,0 -0.633,-0.106 -0.844,-0.317 -0.212,-0.211 -0.318,-0.503 -0.321,-0.876 -0.751,0.077 0,0 -0.751,0.077 0.052,0.561 0.246,0.987 0.58,1.28 0.336,0.294 0.787,0.44 1.352,0.44 0.571,0 1.022,-0.158 1.355,-0.474 0.333,-0.317 0.5,-0.709 0.5,-1.176 0,-0.239 -0.05,-0.472 -0.147,-0.702 -0.098,-0.231 -0.26,-0.473 -0.485,-0.726 -0.225,-0.255 -0.601,-0.604 -1.126,-1.048 -0.438,-0.367 -0.72,-0.617 -0.844,-0.748 -0.124,-0.132 -0.227,-0.263 -0.309,-0.395 2.918,0 0,0 2.918,0"
       style="fill:#000000;fill-opacity:1;fill-rule:nonzero;stroke:none"
       id="path124"
       inkscape:connector-curvature="0" /><path
       d="m 102.398,714.555 c 0,-0.977 0.115,-1.626 0.343,-1.949 0.229,-0.324 0.511,-0.485 0.846,-0.485 0.335,0 0.617,0.162 0.846,0.487 0.228,0.324 0.343,0.973 0.343,1.947 0,0.979 -0.115,1.629 -0.343,1.951 -0.229,0.322 -0.513,0.483 -0.854,0.483 -0.336,0 -0.604,-0.143 -0.803,-0.426 -0.252,-0.362 -0.378,-1.032 -0.378,-2.008 z m -0.751,0 c 0,0.703 0.073,1.269 0.217,1.697 0.145,0.429 0.361,0.759 0.645,0.993 0.286,0.232 0.645,0.348 1.078,0.348 0.32,0 0.599,-0.064 0.84,-0.193 0.24,-0.128 0.439,-0.313 0.597,-0.555 0.157,-0.243 0.28,-0.537 0.369,-0.884 0.089,-0.349 0.133,-0.817 0.133,-1.406 0,-0.698 -0.071,-1.261 -0.215,-1.689 -0.143,-0.43 -0.357,-0.761 -0.642,-0.995 -0.286,-0.234 -0.646,-0.351 -1.082,-0.351 -0.573,0 -1.024,0.206 -1.351,0.617 -0.392,0.494 -0.589,1.301 -0.589,2.418"
       style="fill:#000000;fill-opacity:1;fill-rule:nonzero;stroke:none"
       id="path126"
       inkscape:connector-curvature="0" /><path
       d="m 97.041,738.541 c 0.731,0.097 0,0 0.731,0.097 0.084,-0.414 0.226,-0.712 0.429,-0.895 0.201,-0.182 0.446,-0.273 0.735,-0.273 0.345,0 0.634,0.119 0.871,0.357 0.237,0.238 0.356,0.532 0.356,0.884 0,0.335 -0.111,0.612 -0.33,0.829 -0.219,0.218 -0.498,0.327 -0.835,0.327 -0.139,0 -0.311,-0.028 -0.516,-0.081 0.081,0.641 0,0 0.081,0.641 0.05,-0.005 0.088,-0.008 0.118,-0.008 0.311,0 0.591,0.081 0.84,0.243 0.249,0.163 0.373,0.413 0.373,0.751 0,0.268 -0.09,0.49 -0.272,0.665 -0.181,0.176 -0.415,0.264 -0.701,0.264 -0.285,0 -0.521,-0.089 -0.711,-0.267 -0.189,-0.179 -0.311,-0.448 -0.365,-0.805 -0.731,0.131 0,0 -0.731,0.131 0.09,0.489 0.293,0.868 0.61,1.138 0.316,0.268 0.709,0.402 1.18,0.402 0.324,0 0.623,-0.069 0.898,-0.208 0.272,-0.139 0.481,-0.329 0.626,-0.569 0.145,-0.241 0.217,-0.497 0.217,-0.768 0,-0.255 -0.069,-0.49 -0.207,-0.701 -0.138,-0.211 -0.342,-0.378 -0.612,-0.503 0.351,-0.081 0.624,-0.25 0.819,-0.505 0.195,-0.256 0.292,-0.576 0.292,-0.96 0,-0.519 -0.19,-0.959 -0.568,-1.32 -0.379,-0.361 -0.858,-0.542 -1.437,-0.542 -0.522,0 -0.955,0.156 -1.3,0.466 -0.345,0.312 -0.542,0.715 -0.591,1.21"
       style="fill:#000000;fill-opacity:1;fill-rule:nonzero;stroke:none"
       id="path128"
       inkscape:connector-curvature="0" /><path
       d="m 102.398,739.904 c 0,-0.976 0.115,-1.626 0.343,-1.949 0.229,-0.324 0.511,-0.485 0.846,-0.485 0.335,0 0.617,0.162 0.846,0.487 0.228,0.324 0.343,0.973 0.343,1.947 0,0.978 -0.115,1.629 -0.343,1.951 -0.229,0.322 -0.513,0.483 -0.854,0.483 -0.336,0 -0.604,-0.143 -0.803,-0.426 -0.252,-0.362 -0.378,-1.032 -0.378,-2.008 z m -0.751,0 c 0,0.703 0.073,1.268 0.217,1.697 0.145,0.429 0.361,0.759 0.645,0.993 0.286,0.232 0.645,0.347 1.078,0.347 0.32,0 0.599,-0.063 0.84,-0.191 0.24,-0.128 0.439,-0.314 0.597,-0.556 0.157,-0.242 0.28,-0.537 0.369,-0.884 0.089,-0.348 0.133,-0.816 0.133,-1.406 0,-0.698 -0.071,-1.261 -0.215,-1.691 -0.143,-0.428 -0.357,-0.758 -0.642,-0.992 -0.286,-0.234 -0.646,-0.351 -1.082,-0.351 -0.573,0 -1.024,0.205 -1.351,0.615 -0.392,0.496 -0.589,1.301 -0.589,2.419"
       style="fill:#000000;fill-opacity:1;fill-rule:nonzero;stroke:none"
       id="path130"
       inkscape:connector-curvature="0" /><path
       d="m 99.379,764.474 c 0,2.681 0,0 0,2.681 -1.863,-2.681 0,0 -1.863,-2.681 1.863,0 0,0 1.863,0 z m 0,-2.093 c 0,1.424 0,0 0,1.424 -2.58,0 0,0 -2.58,0 0,0.669 0,0 0,0.669 2.714,3.854 0,0 2.714,3.854 0.596,0 0,0 0.596,0 0,-3.854 0,0 0,-3.854 0.804,0 0,0 0.804,0 0,-0.669 0,0 0,-0.669 -0.804,0 0,0 -0.804,0 0,-1.424 0,0 0,-1.424 -0.73,0 0,0 -0.73,0"
       style="fill:#000000;fill-opacity:1;fill-rule:nonzero;stroke:none"
       id="path132"
       inkscape:connector-curvature="0" /><path
       d="m 102.398,765.314 c 0,-0.977 0.115,-1.626 0.343,-1.95 0.229,-0.324 0.511,-0.485 0.846,-0.485 0.335,0 0.617,0.163 0.846,0.488 0.228,0.324 0.343,0.973 0.343,1.947 0,0.979 -0.115,1.629 -0.343,1.951 -0.229,0.321 -0.513,0.483 -0.854,0.483 -0.336,0 -0.604,-0.143 -0.803,-0.426 -0.252,-0.362 -0.378,-1.031 -0.378,-2.008 z m -0.751,0 c 0,0.703 0.073,1.268 0.217,1.698 0.145,0.428 0.361,0.759 0.645,0.991 0.286,0.232 0.645,0.349 1.078,0.349 0.32,0 0.599,-0.064 0.84,-0.193 0.24,-0.129 0.439,-0.313 0.597,-0.556 0.157,-0.242 0.28,-0.536 0.369,-0.884 0.089,-0.347 0.133,-0.816 0.133,-1.405 0,-0.699 -0.071,-1.261 -0.215,-1.69 -0.143,-0.429 -0.357,-0.76 -0.642,-0.994 -0.286,-0.234 -0.646,-0.351 -1.082,-0.351 -0.573,0 -1.024,0.205 -1.351,0.617 -0.392,0.495 -0.589,1.301 -0.589,2.418"
       style="fill:#000000;fill-opacity:1;fill-rule:nonzero;stroke:none"
       id="path134"
       inkscape:connector-curvature="0" /><g
       id="g136"><g
         id="g138"
         clip-path="url(#clipPath140)"><path
           d="m 253.31,663.106 0,107.946 m 0,0 -1.032,0 m 1.032,-6.367 -2.063,0 m 2.063,-6.307 -1.032,0 m 1.032,-6.368 -1.032,0 m 1.032,-6.367 -1.032,0 m 1.032,-6.368 -2.063,0 m 2.063,-6.307 -1.032,0 m 1.032,-6.367 -1.032,0 m 1.032,-6.368 -1.032,0 m 1.032,-6.306 -2.063,0 m 2.063,-6.368 -1.032,0 m 1.032,-6.368 -1.032,0 m 1.032,-6.306 -1.032,0 m 1.032,-6.368 -2.063,0 m 2.063,-6.368 -1.032,0 m 1.032,-6.368 -1.032,0 m 1.032,-6.306 -1.032,0 m 1.032,-6.369 -2.063,0 m -143.09,107.946 145.153,0 m 0,0 0,-2.061 m -1.092,2.061 0,-1.03 m -1.274,1.03 0,-1.03 m -1.396,1.03 0,-1.03 m -1.577,1.03 0,-1.03 m -1.941,1.03 0,-1.03 m -2.366,1.03 0,-1.03 m -3.032,1.03 0,-1.03 m -4.246,1.03 0,-1.03 m -7.279,1.03 0,-2.061 m -1.092,2.061 0,-1.03 m -1.213,1.03 0,-1.03 m -1.455,1.03 0,-1.03 m -1.578,1.03 0,-1.03 m -1.94,1.03 0,-1.03 m -2.366,1.03 0,-1.03 m -2.973,1.03 0,-1.03 m -4.306,1.03 0,-1.03 m -7.279,1.03 0,-2.061 m -1.092,2.061 0,-1.03 m -1.214,1.03 0,-1.03 m -1.394,1.03 0,-1.03 m -1.638,1.03 0,-1.03 m -1.94,1.03 0,-1.03 m -2.305,1.03 0,-1.03 m -3.033,1.03 0,-1.03 m -4.247,1.03 0,-1.03 m -7.277,1.03 0,-2.061 m -1.154,2.061 0,-1.03 m -1.213,1.03 0,-1.03 m -1.395,1.03 0,-1.03 m -1.638,1.03 0,-1.03 m -1.941,1.03 0,-1.03 m -2.305,1.03 0,-1.03 m -3.033,1.03 0,-1.03 m -4.246,1.03 0,-1.03 m -7.279,1.03 0,-2.061 m -1.152,2.061 0,-1.03 m -1.213,1.03 0,-1.03 m -1.395,1.03 0,-1.03 m -1.638,1.03 0,-1.03 m -1.881,1.03 0,-1.03 m -2.366,1.03 0,-1.03 m -3.032,1.03 0,-1.03 m -4.245,1.03 0,-1.03 m -7.28,1.03 0,-2.061 m -1.092,2.061 0,-1.03 m -1.273,1.03 0,-1.03 m -1.395,1.03 0,-1.03 m -1.639,1.03 0,-1.03 m -1.88,1.03 0,-1.03 m -2.365,1.03 0,-1.03 m -3.033,1.03 0,-1.03 m -4.246,1.03 0,-1.03 m -7.279,1.03 0,-2.061 m 0,-105.885 0,107.946 m 0,0 1.031,0 m -1.031,-6.367 2.062,0 m -2.062,-6.307 1.031,0 m -1.031,-6.368 1.031,0 m -1.031,-6.367 1.031,0 m -1.031,-6.368 2.062,0 m -2.062,-6.307 1.031,0 m -1.031,-6.367 1.031,0 m -1.031,-6.368 1.031,0 m -1.031,-6.306 2.062,0 m -2.062,-6.368 1.031,0 m -1.031,-6.368 1.031,0 m -1.031,-6.306 1.031,0 m -1.031,-6.368 2.062,0 m -2.062,-6.368 1.031,0 m -1.031,-6.368 1.031,0 m -1.031,-6.306 1.031,0 m -1.031,-6.369 2.062,0 m -2.062,0 145.153,0 m 0,0 0,2.062 m -1.092,-2.062 0,1.032 m -1.274,-1.032 0,1.032 m -1.396,-1.032 0,1.032 m -1.577,-1.032 0,1.032 m -1.941,-1.032 0,1.032 m -2.366,-1.032 0,1.032 m -3.032,-1.032 0,1.032 m -4.246,-1.032 0,1.032 m -7.279,-1.032 0,2.062 m -1.092,-2.062 0,1.032 m -1.213,-1.032 0,1.032 m -1.455,-1.032 0,1.032 m -1.578,-1.032 0,1.032 m -1.94,-1.032 0,1.032 m -2.366,-1.032 0,1.032 m -2.973,-1.032 0,1.032 m -4.306,-1.032 0,1.032 m -7.279,-1.032 0,2.062 m -1.092,-2.062 0,1.032 m -1.214,-1.032 0,1.032 m -1.394,-1.032 0,1.032 m -1.638,-1.032 0,1.032 m -1.94,-1.032 0,1.032 m -2.305,-1.032 0,1.032 m -3.033,-1.032 0,1.032 m -4.247,-1.032 0,1.032 m -7.277,-1.032 0,2.062 m -1.154,-2.062 0,1.032 m -1.213,-1.032 0,1.032 m -1.395,-1.032 0,1.032 m -1.638,-1.032 0,1.032 m -1.941,-1.032 0,1.032 m -2.305,-1.032 0,1.032 m -3.033,-1.032 0,1.032 m -4.246,-1.032 0,1.032 m -7.279,-1.032 0,2.062 m -1.152,-2.062 0,1.032 m -1.213,-1.032 0,1.032 m -1.395,-1.032 0,1.032 m -1.638,-1.032 0,1.032 m -1.881,-1.032 0,1.032 m -2.366,-1.032 0,1.032 m -3.032,-1.032 0,1.032 m -4.245,-1.032 0,1.032 m -7.28,-1.032 0,2.062 m -1.092,-2.062 0,1.032 m -1.273,-1.032 0,1.032 m -1.395,-1.032 0,1.032 m -1.639,-1.032 0,1.032 m -1.88,-1.032 0,1.032 m -2.365,-1.032 0,1.032 m -3.033,-1.032 0,1.032 m -4.246,-1.032 0,1.032 m -7.279,-1.032 0,2.062"
           style="fill:none;stroke:#000000;stroke-width:0.43200001;stroke-linecap:round;stroke-linejoin:round;stroke-miterlimit:10;stroke-opacity:1;stroke-dasharray:none"
           id="path144"
           inkscape:connector-curvature="0" /></g></g><g
       id="g146"><g
         id="g148"
         clip-path="url(#clipPath150)"><path
           d="m 108.157,679.905 c 12.096,0.013 24.178,0 36.273,-0.06 6.268,-0.073 13.297,-0.049 19.41,-1.395 7.609,-1.714 12.618,-5.651 19.35,-9.036 6.893,-2.088 11.913,-5.017 19.289,-5.64 5.544,-0.582 11.404,-0.619 16.984,-0.607 11.265,-0.139 22.576,-0.022 33.847,-0.061"
           style="fill:none;stroke:#ff0300;stroke-width:0.86299998;stroke-linecap:round;stroke-linejoin:round;stroke-miterlimit:10;stroke-opacity:1;stroke-dasharray:none"
           id="path154"
           inkscape:connector-curvature="0" /><path
           d="m 108.157,705.8 2.426,0.121 2.366,0.061 2.487,0.06 2.366,-0.181 c 3.864,-0.045 8.404,0.375 12.131,0 8.079,0.284 16.121,-0.179 24.202,-0.122 l 2.426,-0.363 2.426,-0.242 2.366,-0.487 2.487,-0.787 2.366,-0.85 2.426,-1.031 2.427,-1.758 2.425,-1.395 4.853,-4.246 2.428,-3.456 2.425,-1.758 7.218,-10.31 c 4.818,-3.825 8.851,-8.247 14.497,-10.977 5.351,-2.516 11.075,-3.569 16.924,-4.063 10.462,-0.939 20.987,-0.772 31.481,-0.849"
           style="fill:none;stroke:#560000;stroke-width:0.86299998;stroke-linecap:round;stroke-linejoin:round;stroke-miterlimit:10;stroke-opacity:1;stroke-dasharray:none"
           id="path156"
           inkscape:connector-curvature="0" /><path
           d="m 108.157,757.347 c 4.794,-0.053 9.704,-0.055 14.497,0 5.681,0.167 11.351,-0.184 16.985,0 5.642,-0.062 11.305,0.011 16.922,-0.606 6.328,-0.35 12.335,-3.284 16.923,-7.581 l 4.853,-5.579 2.428,-4.245 4.791,-7.581 7.277,-18.435 c 8.391,-14.332 14.168,-34.084 28.996,-43.362 4.436,-2.661 9.442,-4.322 14.557,-5.032 5.503,-0.893 11.351,-1.335 16.924,-1.455"
           style="fill:none;stroke:#000000;stroke-width:0.86299998;stroke-linecap:round;stroke-linejoin:round;stroke-miterlimit:10;stroke-opacity:1;stroke-dasharray:none"
           id="path158"
           inkscape:connector-curvature="0" /></g></g><path
       d="m 84.027,702.342 c -0.172,-0.461 -0.356,-0.768 -0.552,-0.926 -0.194,-0.155 -0.426,-0.234 -0.696,-0.234 -0.364,0 -0.666,0.153 -0.909,0.458 -0.332,0.413 -0.498,0.958 -0.498,1.633 0,0.401 0.048,0.763 0.142,1.085 0.093,0.319 0.215,0.537 0.365,0.652 0.15,0.115 0.292,0.173 0.425,0.173 0.121,0 0.231,-0.051 0.331,-0.151 0.099,-0.103 0.149,-0.22 0.149,-0.353 0,-0.214 -0.14,-0.394 -0.419,-0.536 -0.279,-0.142 -0.449,-0.261 -0.513,-0.354 -0.101,-0.153 -0.151,-0.339 -0.151,-0.563 0,-0.351 0.102,-0.631 0.307,-0.837 0.205,-0.207 0.484,-0.31 0.835,-0.31 0.344,0 0.607,0.085 0.791,0.256 0.183,0.173 0.276,0.409 0.276,0.71 0,0.102 -0.008,0.213 -0.024,0.332 -0.028,0.192 -0.041,0.344 -0.041,0.453 0,0.168 0.022,0.283 0.065,0.342 0.042,0.061 0.093,0.092 0.152,0.092 0.058,0 0.103,-0.027 0.134,-0.077 0.051,-0.07 0.076,-0.193 0.076,-0.368 0,-0.04 -0.005,-0.105 -0.017,-0.194 -0.028,-0.204 -0.041,-0.369 -0.041,-0.498 0,-0.327 0.107,-0.596 0.322,-0.805 0.215,-0.21 0.498,-0.314 0.85,-0.314 0.409,0 0.729,0.109 0.958,0.325 0.229,0.218 0.343,0.497 0.343,0.841 0,0.276 -0.085,0.504 -0.252,0.679 -0.098,0.102 -0.301,0.209 -0.609,0.323 -0.204,0.074 -0.329,0.134 -0.375,0.182 -0.126,0.124 -0.188,0.258 -0.188,0.397 0,0.165 0.057,0.303 0.169,0.416 0.114,0.114 0.254,0.17 0.423,0.17 0.27,0 0.517,-0.153 0.744,-0.462 0.324,-0.45 0.486,-1.021 0.486,-1.718 0,-0.733 -0.162,-1.298 -0.486,-1.696 -0.325,-0.395 -0.684,-0.593 -1.079,-0.593 -0.281,0 -0.548,0.107 -0.802,0.319 -0.254,0.214 -0.485,0.598 -0.692,1.151"
       style="fill:#000000;fill-opacity:1;fill-rule:nonzero;stroke:none"
       id="path160"
       inkscape:connector-curvature="0" /><path
       d="m 92.016,706.222 c -4.124,0 0,0 -4.124,0 0,0.624 0,0 0,0.624 0.578,0 0,0 0.578,0 -0.201,0.13 -0.363,0.302 -0.486,0.517 -0.124,0.215 -0.185,0.459 -0.185,0.733 0,0.305 0.064,0.557 0.19,0.751 0.128,0.196 0.305,0.334 0.532,0.414 -0.482,0.325 -0.722,0.751 -0.722,1.273 0,0.409 0.113,0.724 0.34,0.944 0.227,0.22 0.575,0.33 1.045,0.33 2.832,0 0,0 2.832,0 0,-0.695 0,0 0,-0.695 -2.598,0 0,0 -2.598,0 -0.28,0 -0.481,-0.023 -0.604,-0.068 -0.122,-0.045 -0.222,-0.128 -0.297,-0.246 -0.075,-0.12 -0.111,-0.26 -0.111,-0.421 0,-0.289 0.095,-0.53 0.289,-0.72 0.192,-0.192 0.501,-0.289 0.925,-0.289 2.396,0 0,0 2.396,0 0,-0.698 0,0 0,-0.698 -2.68,0 0,0 -2.68,0 -0.31,0 -0.543,-0.056 -0.699,-0.171 -0.154,-0.114 -0.231,-0.3 -0.231,-0.559 0,-0.197 0.05,-0.379 0.154,-0.545 0.104,-0.168 0.255,-0.289 0.455,-0.363 0.199,-0.076 0.485,-0.113 0.861,-0.113 2.14,0 0,0 2.14,0 0,-0.698 0,0 0,-0.698"
       style="fill:#000000;fill-opacity:1;fill-rule:nonzero;stroke:none"
       id="path162"
       inkscape:connector-curvature="0" /><path
       d="m 89.946,715.384 c 0.104,-0.253 0.192,-0.634 0.264,-1.141 0.042,-0.288 0.088,-0.491 0.141,-0.609 0.051,-0.12 0.127,-0.211 0.226,-0.276 0.101,-0.065 0.211,-0.097 0.332,-0.097 0.187,0 0.342,0.069 0.466,0.211 0.123,0.142 0.187,0.348 0.187,0.62 0,0.268 -0.059,0.507 -0.176,0.717 -0.118,0.21 -0.28,0.364 -0.485,0.462 -0.157,0.076 -0.39,0.113 -0.699,0.113 -0.256,0 0,0 -0.256,0 z m 1.561,0.059 c 0.221,-0.261 0.375,-0.508 0.466,-0.749 0.091,-0.239 0.136,-0.495 0.136,-0.769 0,-0.453 -0.111,-0.802 -0.332,-1.045 -0.221,-0.243 -0.504,-0.365 -0.848,-0.365 -0.202,0 -0.387,0.046 -0.553,0.138 -0.168,0.092 -0.301,0.212 -0.402,0.361 -0.102,0.15 -0.177,0.316 -0.229,0.503 -0.037,0.137 -0.071,0.344 -0.105,0.62 -0.068,0.566 -0.148,0.98 -0.241,1.247 -0.096,0.003 -0.156,0.005 -0.182,0.005 -0.285,0 -0.486,-0.065 -0.603,-0.199 -0.158,-0.179 -0.237,-0.444 -0.237,-0.796 0,-0.329 0.058,-0.571 0.173,-0.728 0.116,-0.156 0.319,-0.272 0.611,-0.347 -0.093,-0.683 0,0 -0.093,-0.683 -0.292,0.061 -0.529,0.164 -0.708,0.306 -0.179,0.143 -0.318,0.348 -0.415,0.618 -0.097,0.268 -0.146,0.58 -0.146,0.936 0,0.352 0.042,0.637 0.124,0.857 0.083,0.22 0.187,0.381 0.313,0.485 0.126,0.104 0.284,0.177 0.476,0.218 0.118,0.024 0.334,0.034 0.644,0.034 0.932,0 0,0 0.932,0 0.65,0 1.061,0.015 1.233,0.045 0.172,0.03 0.337,0.089 0.495,0.178 0,-0.731 0,0 0,-0.731 -0.145,-0.073 -0.314,-0.119 -0.509,-0.139"
       style="fill:#000000;fill-opacity:1;fill-rule:nonzero;stroke:none"
       id="path164"
       inkscape:connector-curvature="0" /><path
       d="m 92.016,716.688 c -2.144,1.507 0,0 -2.144,1.507 -1.98,-1.395 0,0 -1.98,-1.395 0,0.873 0,0 0,0.873 0.967,0.633 0,0 0.967,0.633 0.184,0.119 0.338,0.215 0.462,0.287 -0.171,0.114 -0.322,0.219 -0.454,0.315 -0.975,0.695 0,0 -0.975,0.695 0,0.835 0,0 0,0.835 1.942,-1.425 0,0 1.942,-1.425 2.182,1.533 0,0 2.182,1.533 0,-0.858 0,0 0,-0.858 -1.281,-0.846 0,0 -1.281,-0.846 -0.346,-0.225 0,0 -0.346,-0.225 1.627,-1.083 0,0 1.627,-1.083 0,-0.846 0,0 0,-0.846"
       style="fill:#000000;fill-opacity:1;fill-rule:nonzero;stroke:none"
       id="path166"
       inkscape:connector-curvature="0" /><path
       d="m 88.271,725.724 c -1.269,-0.789 -2.547,-1.188 -3.815,-1.188 -0.497,0 -1.001,0.057 -1.497,0.17 -0.391,0.09 -0.773,0.22 -1.139,0.383 -0.236,0.106 -0.627,0.318 -1.18,0.635 l 0,-0.513 c 0.667,-0.496 1.334,-0.862 2.001,-1.098 0.578,-0.203 1.18,-0.309 1.814,-0.309 0.708,0 1.4,0.138 2.067,0.407 0.667,0.277 1.253,0.61 1.749,1.001"
       style="fill:#000000;fill-opacity:1;fill-rule:nonzero;stroke:none"
       id="path168"
       inkscape:connector-curvature="0" /><path
       d="m 83.325,726.849 c 0.26,0.235 0.39,0.528 0.39,0.886 0,0.358 -0.13,0.651 -0.398,0.895 -0.268,0.244 -0.642,0.366 -1.139,0.366 -0.504,0 -0.887,-0.122 -1.147,-0.358 -0.261,-0.244 -0.391,-0.545 -0.391,-0.912 0,-0.398 0.147,-0.707 0.44,-0.91 0.285,-0.212 0.643,-0.318 1.058,-0.318 0.528,0 0.927,0.114 1.187,0.351 l 0,0 z m -1.961,1.341 c 0.154,0.122 0.415,0.18 0.79,0.18 0.406,0 0.682,-0.058 0.837,-0.18 0.155,-0.113 0.228,-0.268 0.228,-0.446 0,-0.171 -0.073,-0.318 -0.228,-0.44 -0.155,-0.122 -0.414,-0.179 -0.781,-0.179 -0.415,0 -0.692,0.057 -0.846,0.179 -0.154,0.114 -0.227,0.26 -0.227,0.44 0,0.178 0.073,0.325 0.227,0.446 z m 5.41,0.147 -6.134,3.173 0,-0.586 6.134,-3.173 0,0.586 z m -0.399,2.27 c 0.268,0.236 0.399,0.529 0.399,0.887 0,0.358 -0.131,0.651 -0.399,0.895 -0.268,0.244 -0.643,0.365 -1.139,0.365 -0.504,0 -0.886,-0.121 -1.147,-0.357 -0.26,-0.244 -0.39,-0.545 -0.39,-0.911 0,-0.399 0.146,-0.708 0.431,-0.911 0.293,-0.212 0.642,-0.318 1.065,-0.318 0.529,0 0.92,0.114 1.18,0.35 z m -1.952,1.342 c 0.154,0.122 0.415,0.179 0.789,0.179 0.407,0 0.684,-0.057 0.838,-0.179 0.155,-0.114 0.228,-0.268 0.228,-0.448 0,-0.171 -0.073,-0.316 -0.228,-0.439 -0.154,-0.122 -0.415,-0.179 -0.781,-0.179 -0.414,0 -0.691,0.057 -0.846,0.179 -0.154,0.114 -0.227,0.261 -0.227,0.448 0,0.171 0.073,0.317 0.227,0.439"
       style="fill:#000000;fill-opacity:1;fill-rule:nonzero;stroke:none"
       id="path170"
       inkscape:connector-curvature="0" /><path
       d="m 86.522,735.244 c -0.667,0.269 -1.359,0.407 -2.066,0.407 -0.635,0 -1.236,-0.106 -1.815,-0.309 -0.667,-0.236 -1.334,-0.602 -2.001,-1.098 l 0,-0.513 c 0.553,0.326 0.952,0.537 1.188,0.643 0.366,0.154 0.749,0.285 1.147,0.374 0.489,0.114 0.984,0.171 1.481,0.171 1.268,0 2.546,-0.399 3.815,-1.188 l 0,0.513 c -0.496,0.39 -1.082,0.724 -1.749,1"
       style="fill:#000000;fill-opacity:1;fill-rule:nonzero;stroke:none"
       id="path172"
       inkscape:connector-curvature="0" /><path
       d="m 207.157,640.92 c -0.404,0.51 -0.745,1.104 -1.023,1.786 -0.279,0.682 -0.418,1.387 -0.418,2.118 0,0.643 0.104,1.261 0.313,1.85 0.243,0.683 0.619,1.364 1.128,2.044 0.523,0 0,0 0.523,0 -0.328,-0.563 -0.545,-0.964 -0.65,-1.205 -0.165,-0.373 -0.294,-0.763 -0.39,-1.168 -0.115,-0.505 -0.174,-1.014 -0.174,-1.526 0,-1.301 0.405,-2.6 1.214,-3.899 -0.523,0 0,0 -0.523,0"
       style="fill:#000000;fill-opacity:1;fill-rule:nonzero;stroke:none"
       id="path174"
       inkscape:connector-curvature="0" /><path
       d="m 208.62,642.671 c 0,5.946 0,0 0,5.946 1.184,0 0,0 1.184,0 1.408,-4.212 0,0 1.408,-4.212 0.13,-0.391 0.226,-0.685 0.284,-0.879 0.068,0.216 0.173,0.533 0.317,0.952 1.425,4.139 0,0 1.425,4.139 1.058,0 0,0 1.058,0 0,-5.946 0,0 0,-5.946 -0.76,0 0,0 -0.76,0 0,4.976 0,0 0,4.976 -1.728,-4.976 0,0 -1.728,-4.976 -0.71,0 0,0 -0.71,0 -1.719,5.06 0,0 -1.719,5.06 0,-5.06 0,0 0,-5.06 -0.759,0 0,0 -0.759,0"
       style="fill:#000000;fill-opacity:1;fill-rule:nonzero;stroke:none"
       id="path176"
       inkscape:connector-curvature="0" /><path
       d="m 215.945,640.92 c -0.524,0 0,0 -0.524,0 0.809,1.299 1.214,2.598 1.214,3.899 0,0.509 -0.059,1.013 -0.176,1.514 -0.09,0.406 -0.219,0.796 -0.384,1.168 -0.106,0.244 -0.324,0.649 -0.654,1.217 0.524,0 0,0 0.524,0 0.508,-0.68 0.883,-1.361 1.128,-2.044 0.206,-0.589 0.312,-1.207 0.312,-1.85 0,-0.731 -0.141,-1.436 -0.419,-2.118 -0.28,-0.682 -0.621,-1.276 -1.021,-1.786"
       style="fill:#000000;fill-opacity:1;fill-rule:nonzero;stroke:none"
       id="path178"
       inkscape:connector-curvature="0" /><path
       d="m 142.473,643.461 c 0.194,-0.287 0.459,-0.513 0.8,-0.66 0.342,-0.148 0.762,-0.218 1.267,-0.218 0.396,0 0.753,0.07 1.064,0.218 0.319,0.147 0.567,0.35 0.73,0.605 0.171,0.265 0.257,0.545 0.257,0.839 0,0.296 -0.078,0.561 -0.233,0.793 -0.155,0.226 -0.389,0.412 -0.715,0.56 -0.218,0.101 -0.629,0.224 -1.228,0.357 -0.598,0.132 -0.971,0.264 -1.11,0.396 -0.148,0.132 -0.218,0.296 -0.218,0.498 0,0.225 0.101,0.419 0.303,0.583 0.21,0.163 0.528,0.249 0.979,0.249 0.427,0 0.746,-0.094 0.963,-0.273 0.226,-0.18 0.35,-0.443 0.389,-0.793 l 0.707,0.055 c -0.016,0.326 -0.101,0.622 -0.272,0.878 -0.171,0.256 -0.412,0.451 -0.731,0.583 -0.31,0.132 -0.676,0.201 -1.087,0.201 -0.373,0 -0.715,-0.062 -1.018,-0.187 -0.311,-0.13 -0.544,-0.317 -0.7,-0.558 -0.163,-0.249 -0.24,-0.506 -0.24,-0.793 0,-0.256 0.062,-0.482 0.194,-0.692 0.132,-0.202 0.326,-0.38 0.591,-0.519 0.209,-0.109 0.567,-0.226 1.08,-0.342 0.504,-0.125 0.838,-0.219 0.986,-0.272 0.233,-0.094 0.396,-0.202 0.497,-0.327 0.102,-0.132 0.156,-0.288 0.156,-0.458 0,-0.171 -0.054,-0.335 -0.156,-0.474 -0.108,-0.149 -0.264,-0.265 -0.481,-0.35 -0.218,-0.086 -0.466,-0.125 -0.746,-0.125 -0.311,0 -0.598,0.055 -0.847,0.164 -0.256,0.117 -0.443,0.256 -0.559,0.436 -0.125,0.178 -0.202,0.41 -0.234,0.69 l -0.691,-0.061 c 0.008,-0.373 0.109,-0.707 0.303,-1.003"
       style="fill:#000000;fill-opacity:1;fill-rule:nonzero;stroke:none"
       id="path180"
       inkscape:connector-curvature="0" /><path
       d="m 150.314,642.677 0.715,0 c -0.085,0.155 -0.14,0.318 -0.171,0.488 -0.023,0.164 -0.039,0.567 -0.039,1.197 l 0,0.909 c 0,0.303 -0.008,0.513 -0.031,0.629 -0.046,0.187 -0.116,0.342 -0.217,0.467 -0.101,0.124 -0.257,0.226 -0.474,0.303 -0.218,0.085 -0.497,0.124 -0.839,0.124 -0.35,0 -0.653,-0.046 -0.917,-0.14 -0.264,-0.1 -0.467,-0.232 -0.607,-0.412 -0.139,-0.171 -0.24,-0.403 -0.302,-0.691 l 0.668,-0.093 c 0.07,0.287 0.186,0.489 0.342,0.598 0.155,0.117 0.389,0.171 0.715,0.171 0.341,0 0.606,-0.078 0.777,-0.233 0.132,-0.108 0.194,-0.304 0.194,-0.583 0,-0.023 0,-0.086 0,-0.179 -0.265,-0.093 -0.668,-0.171 -1.228,-0.233 -0.264,-0.03 -0.466,-0.07 -0.606,-0.1 -0.179,-0.054 -0.342,-0.125 -0.489,-0.226 -0.148,-0.101 -0.265,-0.233 -0.358,-0.396 -0.085,-0.155 -0.132,-0.343 -0.132,-0.536 0,-0.335 0.117,-0.614 0.358,-0.824 0.241,-0.218 0.582,-0.326 1.025,-0.326 0.265,0 0.521,0.047 0.754,0.132 0.233,0.093 0.474,0.241 0.73,0.458 0.023,-0.194 0.062,-0.357 0.132,-0.504 z m -0.186,1.771 c 0,-0.304 -0.039,-0.529 -0.117,-0.677 -0.093,-0.201 -0.241,-0.356 -0.451,-0.473 -0.202,-0.117 -0.434,-0.171 -0.698,-0.171 -0.273,0 -0.474,0.062 -0.607,0.179 -0.14,0.124 -0.21,0.271 -0.21,0.459 0,0.116 0.032,0.224 0.094,0.318 0.062,0.101 0.155,0.171 0.272,0.225 0.116,0.046 0.318,0.093 0.598,0.132 0.497,0.07 0.87,0.156 1.119,0.256"
       style="fill:#000000;fill-opacity:1;fill-rule:nonzero;stroke:none"
       id="path182"
       inkscape:connector-curvature="0" /><path
       d="m 151.849,642.677 0.6841,0 0,5.562 -0.6841,0 0,-5.562 z"
       style="fill:#000000;fill-opacity:1;fill-rule:nonzero;stroke:none"
       id="path184"
       inkscape:connector-curvature="0" /><path
       d="m 154.78,643.259 c -0.101,0 -0.178,0.015 -0.233,0.047 -0.054,0.039 -0.093,0.077 -0.116,0.139 -0.024,0.055 -0.039,0.179 -0.039,0.374 l 0,2.362 0.683,0 0,0.528 -0.683,0 0,1.406 -0.684,-0.412 0,-0.994 -0.505,0 0,-0.528 0.505,0 0,-2.324 c 0,-0.412 0.031,-0.676 0.085,-0.808 0.055,-0.124 0.148,-0.233 0.288,-0.311 0.132,-0.077 0.326,-0.116 0.575,-0.116 0.147,0 0.318,0.023 0.513,0.062 l -0.094,0.598 c -0.124,-0.014 -0.225,-0.023 -0.295,-0.023"
       style="fill:#000000;fill-opacity:1;fill-rule:nonzero;stroke:none"
       id="path186"
       inkscape:connector-curvature="0" /><path
       d="m 160.2,643.399 c -0.179,-0.164 -0.405,-0.248 -0.669,-0.248 -0.334,0 -0.605,0.123 -0.815,0.365 -0.21,0.249 -0.311,0.636 -0.311,1.18 0,0.536 0.109,0.925 0.326,1.165 0.21,0.249 0.49,0.373 0.839,0.373 0.225,0 0.42,-0.069 0.583,-0.202 0.155,-0.14 0.272,-0.342 0.334,-0.613 l 0.661,0.1 c -0.078,0.406 -0.257,0.723 -0.537,0.942 -0.279,0.224 -0.637,0.333 -1.072,0.333 -0.342,0 -0.668,-0.077 -0.963,-0.24 -0.288,-0.163 -0.513,-0.412 -0.653,-0.739 -0.147,-0.326 -0.218,-0.707 -0.218,-1.134 0,-0.676 0.171,-1.189 0.506,-1.554 0.334,-0.358 0.777,-0.536 1.328,-0.536 0.435,0 0.808,0.132 1.111,0.388 0.295,0.264 0.49,0.622 0.56,1.08 l -0.669,0.093 c -0.046,-0.342 -0.163,-0.591 -0.341,-0.753"
       style="fill:#000000;fill-opacity:1;fill-rule:nonzero;stroke:none"
       id="path188"
       inkscape:connector-curvature="0" /><path
       d="m 162.057,643.135 c 0.349,-0.366 0.808,-0.544 1.367,-0.544 0.358,0 0.676,0.086 0.979,0.248 0.295,0.164 0.521,0.389 0.676,0.692 0.155,0.295 0.233,0.699 0.233,1.22 0,0.637 -0.179,1.135 -0.528,1.5 -0.35,0.364 -0.801,0.543 -1.36,0.543 -0.497,0 -0.917,-0.147 -1.266,-0.45 -0.412,-0.358 -0.622,-0.91 -0.622,-1.648 0,-0.683 0.171,-1.204 0.521,-1.561 z m 0.52,2.712 c 0.226,0.255 0.505,0.38 0.847,0.38 0.342,0 0.622,-0.125 0.847,-0.38 0.225,-0.257 0.342,-0.638 0.342,-1.135 0,-0.528 -0.117,-0.916 -0.342,-1.173 -0.225,-0.257 -0.505,-0.388 -0.847,-0.388 -0.342,0 -0.621,0.123 -0.847,0.38 -0.225,0.256 -0.342,0.645 -0.342,1.157 0,0.514 0.117,0.902 0.342,1.159"
       style="fill:#000000;fill-opacity:1;fill-rule:nonzero;stroke:none"
       id="path190"
       inkscape:connector-curvature="0" /><path
       d="m 166.792,642.677 0,2.198 c 0,0.52 0.109,0.87 0.319,1.05 0.21,0.185 0.458,0.278 0.746,0.278 0.186,0 0.342,-0.038 0.474,-0.124 0.14,-0.077 0.233,-0.193 0.288,-0.326 0.054,-0.141 0.077,-0.35 0.077,-0.629 l 0,-2.447 0.684,0 0,2.478 c 0,0.311 -0.015,0.535 -0.039,0.66 -0.039,0.194 -0.109,0.366 -0.21,0.505 -0.101,0.141 -0.256,0.257 -0.458,0.342 -0.202,0.086 -0.428,0.132 -0.668,0.132 -0.56,0 -0.987,-0.217 -1.282,-0.66 l 0,0.575 -0.614,0 0,-4.032"
       style="fill:#000000;fill-opacity:1;fill-rule:nonzero;stroke:none"
       id="path192"
       inkscape:connector-curvature="0" /><path
       d="m 172.717,643.399 c -0.178,-0.164 -0.404,-0.248 -0.668,-0.248 -0.334,0 -0.606,0.123 -0.816,0.365 -0.21,0.249 -0.311,0.636 -0.311,1.18 0,0.536 0.109,0.925 0.327,1.165 0.209,0.249 0.49,0.373 0.839,0.373 0.225,0 0.42,-0.069 0.583,-0.202 0.155,-0.14 0.272,-0.342 0.334,-0.613 l 0.66,0.1 c -0.078,0.406 -0.256,0.723 -0.536,0.942 -0.279,0.224 -0.637,0.333 -1.072,0.333 -0.342,0 -0.668,-0.077 -0.963,-0.24 -0.288,-0.163 -0.513,-0.412 -0.653,-0.739 -0.148,-0.326 -0.218,-0.707 -0.218,-1.134 0,-0.676 0.171,-1.189 0.505,-1.554 0.334,-0.358 0.777,-0.536 1.329,-0.536 0.435,0 0.808,0.132 1.111,0.388 0.295,0.264 0.489,0.622 0.559,1.08 l -0.668,0.093 c -0.046,-0.342 -0.163,-0.591 -0.342,-0.753"
       style="fill:#000000;fill-opacity:1;fill-rule:nonzero;stroke:none"
       id="path194"
       inkscape:connector-curvature="0" /><path
       d="m 176.641,643.352 c -0.179,-0.131 -0.388,-0.201 -0.637,-0.201 -0.342,0 -0.622,0.117 -0.847,0.349 -0.225,0.241 -0.349,0.574 -0.373,1.018 l 3.007,0 c 0,0.078 0,0.139 0,0.178 0,0.668 -0.171,1.181 -0.513,1.546 -0.342,0.366 -0.777,0.552 -1.313,0.552 -0.559,0 -1.01,-0.186 -1.36,-0.56 -0.349,-0.373 -0.52,-0.901 -0.52,-1.577 0,-0.652 0.171,-1.157 0.52,-1.522 0.342,-0.366 0.808,-0.544 1.399,-0.544 0.466,0 0.847,0.116 1.15,0.342 0.295,0.225 0.505,0.543 0.614,0.955 l -0.707,0.093 c -0.102,-0.287 -0.242,-0.497 -0.42,-0.629 z m -1.461,2.564 c 0.21,0.21 0.474,0.318 0.785,0.318 0.349,0 0.63,-0.132 0.847,-0.395 0.14,-0.171 0.225,-0.42 0.256,-0.762 l -2.245,0 c 0.024,0.35 0.14,0.63 0.357,0.839"
       style="fill:#000000;fill-opacity:1;fill-rule:nonzero;stroke:none"
       id="path196"
       inkscape:connector-curvature="0" /><path
       d="m 179.31,642.677 0,2.198 c 0,0.52 0.109,0.87 0.318,1.05 0.21,0.185 0.459,0.278 0.746,0.278 0.187,0 0.343,-0.038 0.475,-0.124 0.14,-0.077 0.233,-0.193 0.287,-0.326 0.055,-0.141 0.078,-0.35 0.078,-0.629 l 0,-2.447 0.684,0 0,2.478 c 0,0.311 -0.015,0.535 -0.039,0.66 -0.039,0.194 -0.109,0.366 -0.21,0.505 -0.101,0.141 -0.256,0.257 -0.458,0.342 -0.202,0.086 -0.428,0.132 -0.669,0.132 -0.559,0 -0.986,-0.217 -1.282,-0.66 l 0,0.575 -0.614,0 0,-4.032"
       style="fill:#000000;fill-opacity:1;fill-rule:nonzero;stroke:none"
       id="path198"
       inkscape:connector-curvature="0" /><path
       d="m 184.132,643.259 c -0.101,0 -0.179,0.015 -0.233,0.047 -0.054,0.039 -0.093,0.077 -0.116,0.139 -0.024,0.055 -0.039,0.179 -0.039,0.374 l 0,2.362 0.683,0 0,0.528 -0.683,0 0,1.406 -0.684,-0.412 0,-0.994 -0.505,0 0,-0.528 0.505,0 0,-2.324 c 0,-0.412 0.031,-0.676 0.085,-0.808 0.055,-0.124 0.148,-0.233 0.288,-0.311 0.132,-0.077 0.326,-0.116 0.575,-0.116 0.147,0 0.319,0.023 0.512,0.062 l -0.093,0.598 c -0.124,-0.014 -0.225,-0.023 -0.295,-0.023"
       style="fill:#000000;fill-opacity:1;fill-rule:nonzero;stroke:none"
       id="path200"
       inkscape:connector-curvature="0" /><path
       d="m 185.778,642.677 0,2.105 c 0,0.287 0.038,0.551 0.116,0.801 0.047,0.155 0.132,0.278 0.249,0.372 0.116,0.086 0.256,0.132 0.403,0.132 0.164,0 0.327,-0.046 0.498,-0.14 l 0.241,0.63 c -0.241,0.148 -0.474,0.217 -0.7,0.217 -0.163,0 -0.31,-0.046 -0.442,-0.14 -0.132,-0.085 -0.28,-0.28 -0.436,-0.559 l 0,0.614 -0.613,0 0,-4.032"
       style="fill:#000000;fill-opacity:1;fill-rule:nonzero;stroke:none"
       id="path202"
       inkscape:connector-curvature="0" /><path
       d="m 190.457,642.677 0.715,0 c -0.086,0.155 -0.14,0.318 -0.171,0.488 -0.023,0.164 -0.038,0.567 -0.038,1.197 l 0,0.909 c 0,0.303 -0.009,0.513 -0.032,0.629 -0.046,0.187 -0.117,0.342 -0.217,0.467 -0.101,0.124 -0.257,0.226 -0.474,0.303 -0.218,0.085 -0.497,0.124 -0.839,0.124 -0.35,0 -0.653,-0.046 -0.917,-0.14 -0.264,-0.1 -0.466,-0.232 -0.606,-0.412 -0.14,-0.171 -0.241,-0.403 -0.303,-0.691 l 0.668,-0.093 c 0.07,0.287 0.187,0.489 0.342,0.598 0.155,0.117 0.388,0.171 0.715,0.171 0.341,0 0.606,-0.078 0.777,-0.233 0.132,-0.108 0.194,-0.304 0.194,-0.583 0,-0.023 0,-0.086 0,-0.179 -0.265,-0.093 -0.668,-0.171 -1.228,-0.233 -0.264,-0.03 -0.466,-0.07 -0.606,-0.1 -0.179,-0.054 -0.342,-0.125 -0.489,-0.226 -0.148,-0.101 -0.265,-0.233 -0.358,-0.396 -0.085,-0.155 -0.132,-0.343 -0.132,-0.536 0,-0.335 0.117,-0.614 0.358,-0.824 0.241,-0.218 0.582,-0.326 1.025,-0.326 0.264,0 0.521,0.047 0.754,0.132 0.233,0.093 0.474,0.241 0.73,0.458 0.023,-0.194 0.063,-0.357 0.132,-0.504 z m -0.186,1.771 c 0,-0.304 -0.039,-0.529 -0.116,-0.677 -0.094,-0.201 -0.242,-0.356 -0.452,-0.473 -0.202,-0.117 -0.435,-0.171 -0.698,-0.171 -0.272,0 -0.475,0.062 -0.607,0.179 -0.14,0.124 -0.21,0.271 -0.21,0.459 0,0.116 0.032,0.224 0.094,0.318 0.062,0.101 0.155,0.171 0.272,0.225 0.116,0.046 0.318,0.093 0.598,0.132 0.498,0.07 0.87,0.156 1.119,0.256"
       style="fill:#000000;fill-opacity:1;fill-rule:nonzero;stroke:none"
       id="path204"
       inkscape:connector-curvature="0" /><path
       d="m 193.197,643.259 c -0.101,0 -0.179,0.015 -0.234,0.047 -0.054,0.039 -0.093,0.077 -0.116,0.139 -0.023,0.055 -0.039,0.179 -0.039,0.374 l 0,2.362 0.684,0 0,0.528 -0.684,0 0,1.406 -0.684,-0.412 0,-0.994 -0.504,0 0,-0.528 0.504,0 0,-2.324 c 0,-0.412 0.031,-0.676 0.086,-0.808 0.054,-0.124 0.147,-0.233 0.287,-0.311 0.132,-0.077 0.327,-0.116 0.576,-0.116 0.147,0 0.318,0.023 0.512,0.062 l -0.093,0.598 c -0.124,-0.014 -0.226,-0.023 -0.295,-0.023"
       style="fill:#000000;fill-opacity:1;fill-rule:nonzero;stroke:none"
       id="path206"
       inkscape:connector-curvature="0" /><path
       d="m 194.166,647.462 0.68399,0 0,0.77698 -0.68399,0 0,-0.77698 z m 0.684,0 z m 0,-4.785 0,4.032 -0.684,0 0,-4.032"
       style="fill:#000000;fill-opacity:1;fill-rule:nonzero;stroke:none"
       id="path208"
       inkscape:connector-curvature="0" /><path
       d="m 196.156,643.135 c 0.35,-0.366 0.808,-0.544 1.368,-0.544 0.358,0 0.676,0.086 0.979,0.248 0.295,0.164 0.521,0.389 0.676,0.692 0.155,0.295 0.233,0.699 0.233,1.22 0,0.637 -0.178,1.135 -0.528,1.5 -0.35,0.364 -0.8,0.543 -1.36,0.543 -0.497,0 -0.917,-0.147 -1.266,-0.45 -0.412,-0.358 -0.622,-0.91 -0.622,-1.648 0,-0.683 0.171,-1.204 0.52,-1.561 z m 0.521,2.712 c 0.226,0.255 0.505,0.38 0.847,0.38 0.342,0 0.622,-0.125 0.847,-0.38 0.225,-0.257 0.342,-0.638 0.342,-1.135 0,-0.528 -0.117,-0.916 -0.342,-1.173 -0.225,-0.257 -0.505,-0.388 -0.847,-0.388 -0.342,0 -0.621,0.123 -0.847,0.38 -0.225,0.256 -0.342,0.645 -0.342,1.157 0,0.514 0.117,0.902 0.342,1.159"
       style="fill:#000000;fill-opacity:1;fill-rule:nonzero;stroke:none"
       id="path210"
       inkscape:connector-curvature="0" /><path
       d="m 200.892,642.677 0,2.198 c 0,0.52 0.11,0.87 0.319,1.05 0.21,0.185 0.459,0.278 0.746,0.278 0.186,0 0.342,-0.038 0.474,-0.124 0.14,-0.077 0.233,-0.193 0.288,-0.326 0.054,-0.141 0.078,-0.35 0.078,-0.629 l 0,-2.447 0.683,0 0,2.478 c 0,0.311 -0.015,0.535 -0.039,0.66 -0.039,0.194 -0.109,0.366 -0.21,0.505 -0.101,0.141 -0.256,0.257 -0.458,0.342 -0.202,0.086 -0.428,0.132 -0.668,0.132 -0.56,0 -0.987,-0.217 -1.282,-0.66 l 0,0.575 -0.614,0 0,-4.032"
       style="fill:#000000;fill-opacity:1;fill-rule:nonzero;stroke:none"
       id="path212"
       inkscape:connector-curvature="0" /></g></svg>